<svg width="72" height="35" viewBox="0 0 72 35" fill="none" xmlns="http://www.w3.org/2000/svg">
<path d="M29.3025 8.49206C29.1767 8.6096 29.0925 8.74974 28.9983 8.88343C28.8958 9.02939 29.1933 9.1592 29.2833 9.01195C29.3667 8.87504 29.4692 8.73618 29.5167 8.58893C29.545 8.49916 29.3892 8.41197 29.3025 8.49206Z" fill="#E7DEC8"/>
<path d="M7.48825 15.3314C8.05159 13.7692 8.26742 12.1107 8.57242 10.5096C8.58075 10.4715 8.50658 10.4535 8.49492 10.4929C8.03492 12.0758 7.46992 13.6891 7.26825 15.3075C7.25659 15.407 7.45575 15.4225 7.48825 15.3314Z" fill="#E7DEC8"/>
<path d="M12.2291 16.6825C12.4641 15.7228 12.5557 14.7431 12.6791 13.7724C12.8091 12.7455 12.9716 11.7128 12.9907 10.6808C12.9916 10.6395 12.9049 10.6278 12.8941 10.6711C12.6557 11.627 12.5449 12.6047 12.4099 13.5722C12.2666 14.5997 12.0832 15.6311 12.0599 16.6645C12.0574 16.7374 12.2107 16.7581 12.2291 16.6825Z" fill="#E7DEC8"/>
<path d="M19.5333 17.4562C19.5524 17.5253 19.6858 17.5073 19.6874 17.4401C19.7074 16.4449 19.5033 15.4367 19.3749 14.4473C19.2458 13.4488 19.1024 12.4517 18.9641 11.4539C18.9491 11.3447 18.7291 11.3421 18.7416 11.4539C18.8591 12.4853 18.9716 13.516 19.0991 14.5468C19.2174 15.5136 19.2708 16.5049 19.5333 17.4562Z" fill="#E7DEC8"/>
<path d="M24.44 15.6866C24.1708 14.5803 23.8191 13.4902 23.4225 12.4077C23.4083 12.3677 23.3341 12.3845 23.3433 12.4245C23.6125 13.5315 23.925 14.6288 24.3225 15.7118C24.3441 15.7712 24.4541 15.7461 24.44 15.6866Z" fill="#E7DEC8"/>
<path d="M38.09 9.12369C36.9733 9.52476 35.935 10.0311 34.8742 10.5116C34.8308 10.5323 34.8692 10.5813 34.9142 10.5633C36.0158 10.1409 37.1342 9.74692 38.18 9.24317C38.2792 9.19538 38.1933 9.08688 38.09 9.12369Z" fill="#E7DEC8"/>
<path d="M39.0783 9.30001C37.8083 9.8438 36.5483 10.4212 35.3525 11.0586C35.3091 11.0812 35.3458 11.1322 35.3941 11.1135C36.685 10.6007 37.9391 10.0156 39.16 9.40722C39.2466 9.36459 39.17 9.26061 39.0783 9.30001Z" fill="#E7DEC8"/>
<path d="M41.1116 16.4972C42.4157 15.8507 43.5766 14.8684 44.6432 14.0062C44.7174 13.9461 44.6074 13.8654 44.5274 13.9164C43.3391 14.6766 41.9907 15.5007 41.0607 16.4578C41.0382 16.481 41.0816 16.512 41.1116 16.4972Z" fill="#E7DEC8"/>
<path d="M39.8808 19.0301C40.6208 18.5993 41.2992 18.0271 41.9058 17.4872C41.9825 17.4194 41.8658 17.329 41.7775 17.3884C41.0808 17.8573 40.3425 18.383 39.7858 18.9558C39.745 18.9985 39.8267 19.0618 39.8808 19.0301Z" fill="#E7DEC8"/>
<path d="M47.3932 23.6698C48.3182 22.8999 49.2157 22.1198 50.0982 21.3209C50.1466 21.2783 50.0699 21.2163 50.0166 21.2582C49.0674 22.0074 48.1416 22.7662 47.2332 23.5445C47.1357 23.6291 47.2932 23.7531 47.3932 23.6698Z" fill="#E7DEC8"/>
<path d="M53.4 27.7392C54.0616 27.3291 54.6133 26.8027 55.19 26.3241C55.7725 25.8417 56.355 25.3586 56.9375 24.8762C57.0625 24.7722 56.8616 24.6166 56.735 24.7199C56.1225 25.2256 55.5083 25.73 54.8941 26.2357C54.3375 26.6942 53.725 27.1366 53.2583 27.6546C53.1941 27.725 53.3266 27.7844 53.4 27.7392Z" fill="#E7DEC8"/>
<path d="M56.4424 26.9622C56.5582 26.8376 56.2899 26.7168 56.1749 26.8414C55.7682 27.2851 55.2499 27.7308 54.9799 28.2364C54.9441 28.3023 55.0649 28.3391 55.1216 28.3004C55.6524 27.9387 56.0324 27.4046 56.4424 26.9622Z" fill="#E7DEC8"/>
<path d="M23.1341 4.13976C23.1816 4.13976 23.1816 4.08228 23.1341 4.08228C23.0849 4.08228 23.0849 4.13976 23.1341 4.13976Z" fill="#E7DEC8"/>
<path d="M22.2125 7.60406C22.5975 6.73929 22.7716 5.80477 23.0175 4.91158C23.0541 4.77854 22.7883 4.71976 22.7508 4.85539C22.5016 5.75504 22.1641 6.66889 22.0566 7.58791C22.0483 7.6596 22.1841 7.66606 22.2125 7.60406Z" fill="#E7DEC8"/>
<path d="M56.8049 12.019C56.0224 12.3619 55.2799 12.7552 54.5349 13.1453C54.3883 13.2222 54.5241 13.4056 54.6749 13.33C55.4349 12.9445 56.1983 12.5634 56.9174 12.1326C57.0033 12.081 56.8941 11.9802 56.8049 12.019Z" fill="#E7DEC8"/>
<path d="M57.0575 12.5079C56.8891 12.5079 56.8883 12.7107 57.0575 12.7107C57.2258 12.7107 57.2258 12.5079 57.0575 12.5079Z" fill="#E7DEC8"/>
<path d="M64.2908 17.3652C64.1258 17.3497 63.9574 17.3542 63.7916 17.3522C63.6499 17.3509 63.6499 17.5253 63.7916 17.5234C63.8508 17.5234 63.9091 17.5234 63.9683 17.5234C63.1374 17.7804 62.3158 18.0562 61.5574 18.4288C61.5174 18.4489 61.5424 18.5018 61.5908 18.4902C62.5574 18.2551 63.4608 17.8941 64.3491 17.5234C64.3849 17.5085 64.3891 17.4756 64.3749 17.4511C64.3849 17.4136 64.3599 17.3716 64.2908 17.3652Z" fill="#E7DEC8"/>
<path d="M36.9641 23.4767C37.0091 23.5432 37.1599 23.5141 37.1524 23.4366C37.0624 22.5312 36.5291 21.5715 36.2066 20.6996C36.1524 20.5524 35.8549 20.615 35.9091 20.7635C36.2266 21.6348 36.4258 22.6707 36.9641 23.4767Z" fill="#E7DEC8"/>
<path d="M37.9575 23.7531C38.1083 24.171 38.1991 24.6411 38.5099 25.006C38.5533 25.0571 38.6566 25.0377 38.6591 24.975C38.6733 24.5378 38.4308 24.1025 38.2741 23.6853C38.0916 23.2035 37.9083 22.7217 37.7258 22.2399C37.6716 22.0965 37.385 22.1573 37.4366 22.3019C37.6108 22.7857 37.7833 23.2694 37.9575 23.7531Z" fill="#E7DEC8"/>
<path d="M32.7758 21.0348C32.6791 20.8882 32.3941 21.0174 32.4899 21.164C32.5749 21.2931 32.6599 21.4191 32.7599 21.5418C32.8433 21.6425 33.0874 21.5792 33.0249 21.4546C32.9524 21.3099 32.8666 21.1737 32.7758 21.0348Z" fill="#E7DEC8"/>
<path d="M5.17656 13.1866C5.18073 13.1447 5.09656 13.1453 5.09323 13.1866C4.91989 15.3534 6.54406 17.6758 9.39823 18.2629C9.51323 18.2861 9.5999 18.146 9.4824 18.1072C6.98823 17.2696 5.00073 15.3889 5.17656 13.1866Z" fill="#E7DEC8"/>
<path d="M21.3874 14.3769C21.4358 14.3769 21.4358 14.3188 21.3874 14.3188C21.3391 14.3188 21.3391 14.3769 21.3874 14.3769Z" fill="#E7DEC8"/>
<path d="M23.1341 14.1838C23.1816 14.1838 23.1816 14.1257 23.1341 14.1257C23.0849 14.1257 23.0849 14.1838 23.1341 14.1838Z" fill="#E7DEC8"/>
<path d="M24.1316 14.3769C24.1799 14.3769 24.1799 14.3188 24.1316 14.3188C24.0833 14.3188 24.0833 14.3769 24.1316 14.3769Z" fill="#E7DEC8"/>
<path d="M49.7241 8.89636C49.0824 9.70495 48.4791 10.5355 47.8949 11.3699C47.7983 11.5075 48.0699 11.6308 48.1666 11.4926C48.7508 10.6569 49.3191 9.81022 49.8449 8.95061C49.8833 8.88797 49.7716 8.83501 49.7241 8.89636Z" fill="#E7DEC8"/>
<path d="M50.1416 10.022C49.6091 10.715 49.0974 11.4157 48.6099 12.1287C48.5108 12.2734 48.7958 12.4032 48.8941 12.2573C49.3799 11.5417 49.8374 10.8164 50.2766 10.0834C50.3183 10.0136 50.1933 9.95358 50.1416 10.022Z" fill="#E7DEC8"/>
<path d="M50.7816 11.2414C50.1791 11.8678 49.5466 12.4975 49.0649 13.1866C49.0416 13.2202 49.1008 13.2589 49.1358 13.2292C49.8058 12.6357 50.3516 11.9557 50.9033 11.2969C50.9533 11.2362 50.8349 11.1871 50.7816 11.2414Z" fill="#E7DEC8"/>
<path d="M52.5157 27.8567C52.3449 28.1777 52.1741 28.4987 52.0032 28.819C51.9707 28.881 52.1024 28.9094 52.1332 28.8474C52.2949 28.5245 52.4574 28.2016 52.6191 27.878C52.6441 27.829 52.5416 27.8083 52.5157 27.8567Z" fill="#E7DEC8"/>
<path d="M55.4907 28.0292C55.0974 28.5149 54.7449 29.0257 54.4091 29.5359C54.3041 29.6948 54.6157 29.8349 54.7174 29.6754C55.0466 29.1529 55.3682 28.6208 55.6382 28.0776C55.6724 28.0098 55.5374 27.9724 55.4907 28.0292Z" fill="#E7DEC8"/>
<path d="M56.8999 28.3721C56.5391 28.7461 56.1999 29.1278 55.8708 29.5185C55.7574 29.6515 56.0383 29.7794 56.1466 29.6438C56.4633 29.2485 56.7666 28.8501 57.0508 28.4406C57.1041 28.3624 56.9658 28.3043 56.8999 28.3721Z" fill="#E7DEC8"/>
<path d="M57.095 30.2024C57.2608 30.0086 57.4266 29.8155 57.5925 29.6224C57.6233 29.5875 57.55 29.5539 57.5191 29.5888C57.3533 29.7819 57.1858 29.975 57.0191 30.1688C56.9874 30.205 57.0641 30.2392 57.095 30.2024Z" fill="#E7DEC8"/>
<path d="M57.8058 29.8278C57.8541 29.8278 57.8541 29.7703 57.8058 29.7703C57.7574 29.7703 57.7574 29.8278 57.8058 29.8278Z" fill="#E7DEC8"/>
<path d="M35.6066 8.75298C36.2699 8.30993 36.8633 7.74677 37.3891 7.20556C37.4633 7.1287 37.3058 7.0441 37.2216 7.1061C36.5891 7.57368 35.9416 8.0981 35.4516 8.66127C35.3866 8.73618 35.5266 8.80658 35.6066 8.75298Z" fill="#E7DEC8"/>
<path d="M6.8266 17.867C5.95327 16.4016 4.70494 15.0634 3.59744 13.6891C4.4941 13.0361 5.36744 12.3696 6.21994 11.6812C6.28077 11.6314 6.1866 11.5585 6.12327 11.6063C5.23994 12.2624 4.3841 12.9354 3.54494 13.6251C3.5041 13.5735 3.46494 13.5218 3.42494 13.4701C4.27494 12.7487 5.12827 12.0209 5.90077 11.2498C5.96577 11.1865 5.85827 11.0948 5.78244 11.158C4.9291 11.8678 4.14327 12.6331 3.36494 13.3946C3.2716 13.2751 3.17744 13.1569 3.0866 13.0374C3.0591 13.0006 2.98577 13.0342 3.01327 13.0704C3.10994 13.1989 3.2041 13.33 3.29744 13.4598C3.21994 13.536 3.14077 13.6129 3.06244 13.6891C3.03327 13.7188 3.0841 13.7608 3.11827 13.7317C3.19577 13.6652 3.27327 13.5993 3.3516 13.5328C3.3891 13.5851 3.42827 13.6368 3.46494 13.6891C3.44244 13.7078 3.4191 13.7252 3.3966 13.744C3.35827 13.7769 3.41744 13.8221 3.4591 13.7924C3.4766 13.7801 3.49327 13.7666 3.51077 13.7543C4.50994 15.1687 5.40327 16.6599 6.6191 17.9606C6.70994 18.0575 6.8916 17.9761 6.8266 17.867Z" fill="#E7DEC8"/>
<path d="M36.155 4.65198C36.9858 4.52281 37.8083 4.37168 38.6325 4.21862C38.7391 4.19925 38.6925 4.0817 38.5883 4.09397C37.7483 4.19795 36.9108 4.30193 36.0758 4.4311C35.89 4.45887 35.9691 4.67975 36.155 4.65198Z" fill="#E7DEC8"/>
<path d="M70.1374 26.5063C70.7974 25.3154 71.0491 23.8855 71.0216 22.6972C70.9299 18.8396 69.2916 15.3973 65.8283 12.6073C62.2949 9.76177 58.4483 6.75865 53.8291 4.98712C50.0191 3.5256 45.0074 2.75383 41.0999 4.35873C41.1049 4.29285 41.0908 4.22375 41.0474 4.15142C39.4891 1.59715 35.8874 0.68523 32.5108 0.319688C28.3333 -0.132395 23.8208 -0.0561867 19.6274 0.246063C14.7483 0.598042 9.79077 1.60683 5.80661 3.89954C3.62994 5.15181 0.388275 7.688 0.613275 9.99879C0.567442 10.022 0.527442 10.055 0.504109 10.1002C-0.861724 12.7345 0.786609 15.8675 2.60411 18.1214C4.49161 20.4613 6.89328 22.6965 10.4616 23.4115C17.7474 24.8704 27.4858 25.4187 34.3466 22.5835C37.0799 26.0096 40.7049 28.8074 45.1883 30.9664C49.7874 33.1829 55.4049 34.7258 60.8499 33.75C64.8808 33.0286 70.2458 30.4039 70.4591 26.8189C70.4691 26.6542 70.3158 26.5412 70.1374 26.5063ZM41.6349 8.99387C41.9941 9.52862 42.4133 10.0362 42.9008 10.5129C43.6749 11.2717 44.5741 11.9318 45.5258 12.5479C43.2991 13.908 41.1499 15.3515 39.0216 16.8014C38.8883 16.8931 39.0799 17.0364 39.2133 16.9512C41.4008 15.5491 43.5824 14.1308 45.6683 12.6383C46.4333 13.1272 47.2299 13.589 48.0258 14.0449C50.2683 15.3308 52.2541 16.6438 54.0874 18.2751C56.3883 20.3231 58.6183 22.4995 61.1824 24.3544C61.6883 24.7199 62.2391 25.0771 62.7399 25.4652C62.7333 25.471 62.7266 25.4768 62.7191 25.4839C62.5699 25.6234 62.8333 25.8243 62.9766 25.6828C62.9816 25.6783 62.9858 25.6732 62.9916 25.668C63.2441 25.8798 63.4799 26.1001 63.6791 26.3403C65.0274 27.9568 63.4683 29.4668 61.3583 29.966C58.8041 30.5686 55.8291 30.276 53.2216 29.6696C53.5533 29.2194 53.8741 28.7641 54.1499 28.2927C54.2024 28.2029 54.0524 28.1325 53.9774 28.2145C53.5924 28.6395 53.2474 29.0864 52.9141 29.5372C52.9008 29.5553 52.8941 29.5733 52.8916 29.5914C52.5149 29.4984 52.1474 29.3996 51.7908 29.2969C51.1616 29.1148 50.5424 28.9056 49.9291 28.6821C50.2158 28.2442 50.4983 27.8044 50.7683 27.3607C51.0166 27.4582 51.2649 27.5538 51.5141 27.6488C51.3149 27.8916 51.1158 28.1338 50.9224 28.3798C50.8066 28.5265 51.1066 28.6614 51.2191 28.5142C51.4116 28.263 51.5974 28.0078 51.7833 27.7534C51.9091 27.8005 52.0324 27.8516 52.1583 27.8981C52.2824 27.9446 52.3883 27.8102 52.2674 27.7534C52.1474 27.6972 52.0241 27.6449 51.9033 27.5906C52.1533 27.2445 52.3966 26.8964 52.6324 26.545C52.6774 26.4779 52.5566 26.4249 52.5024 26.4856C52.2124 26.8131 51.9299 27.1444 51.6524 27.4783C51.4033 27.364 51.1533 27.2516 50.9016 27.1411C51.0624 26.8712 51.2199 26.6006 51.3674 26.3274C51.4041 26.2615 51.2674 26.2221 51.2224 26.2796C51.0274 26.5276 50.8416 26.7795 50.6591 27.032C50.3591 26.9002 50.0574 26.7704 49.7549 26.6406C49.8766 26.4779 50.0049 26.3171 50.1224 26.1504C50.1733 26.0781 50.0424 26.0238 49.9816 26.0878C49.8341 26.2415 49.6899 26.3971 49.5483 26.5541C49.1824 26.3991 48.8174 26.2428 48.4499 26.091C48.6041 25.8579 48.7516 25.6234 48.8924 25.3871C48.9349 25.3167 48.8158 25.2624 48.7583 25.3263C48.5658 25.5427 48.3774 25.7629 48.1958 25.9851C47.9499 25.8843 47.7041 25.7842 47.4583 25.6835C47.5316 25.5898 47.6049 25.4962 47.6783 25.4019C47.7566 25.3005 47.5649 25.2211 47.4791 25.3115C47.3916 25.4032 47.3066 25.4943 47.2199 25.5853C46.9733 25.4852 46.7283 25.3845 46.4824 25.2837C46.7341 24.9421 46.9599 24.5862 47.1791 24.2426C47.1833 24.2368 47.1791 24.233 47.1808 24.2271C47.2241 24.2833 47.3224 24.3137 47.3966 24.2523C48.3199 23.4825 49.2241 22.7049 50.1016 21.9034C50.1599 21.8505 50.0666 21.7749 50.0016 21.8253C49.0399 22.5661 48.1124 23.3249 47.1966 24.0973C47.1691 24.1212 47.1599 24.1464 47.1599 24.1716C47.1283 24.1477 47.0749 24.1419 47.0441 24.1813C46.7841 24.5107 46.5158 24.8504 46.2766 25.1991C45.9216 25.0551 45.5691 24.9091 45.2149 24.7645C45.7108 24.2091 46.1999 23.6504 46.6483 23.0698C46.6924 23.0117 46.5833 22.9413 46.5258 22.9962C45.9649 23.5309 45.4458 24.0876 44.9324 24.6489C44.7324 24.5668 44.5324 24.4855 44.3341 24.4028C44.3049 24.3912 44.2774 24.3892 44.2508 24.3899C44.2458 24.3867 44.2416 24.3841 44.2366 24.3808C44.7041 23.7796 45.1633 23.1744 45.5958 22.5577C46.9558 21.5837 48.2883 20.5846 49.5666 19.5552C49.6399 19.4964 49.5299 19.4125 49.4524 19.4661C47.3891 20.8746 45.3983 22.3723 43.4933 23.9113C43.4808 23.9029 43.4683 23.8945 43.4558 23.8868C43.9466 23.166 44.4249 22.4427 44.8583 21.7C44.8991 21.6296 44.7774 21.5702 44.7224 21.6386C44.1799 22.3168 43.6824 23.013 43.1949 23.715C42.9208 23.5277 42.6549 23.334 42.3933 23.137C42.7324 22.6649 43.0674 22.1908 43.3991 21.7142C43.4416 21.6522 43.3258 21.5999 43.2774 21.6593C42.9166 22.1036 42.5591 22.548 42.2058 22.9949C42.0333 22.8618 41.8633 22.7262 41.6966 22.5887C42.0291 22.1114 42.3558 21.6302 42.6774 21.1472C42.7208 21.0832 42.6016 21.0283 42.5524 21.0903C42.1966 21.5327 41.8449 21.9771 41.4983 22.4233C41.2083 22.1766 40.9266 21.9222 40.6574 21.6619C40.8258 21.3532 40.9933 21.0445 41.1599 20.7358C41.1908 20.6789 41.0674 20.6395 41.0333 20.6944C40.8591 20.9689 40.6849 21.2421 40.5124 21.5179C40.2783 21.286 40.0541 21.0483 39.8391 20.8062C39.9599 20.6654 40.0783 20.5226 40.1841 20.3754C40.2399 20.2985 40.1024 20.2088 40.0224 20.2785C39.8991 20.3864 39.7808 20.4968 39.6666 20.6098C39.2716 20.15 38.9099 19.6714 38.5899 19.1774C38.5683 19.1425 38.5008 19.1722 38.5233 19.2077C38.8516 19.7147 39.2099 20.2081 39.5958 20.6841C39.3941 20.8895 39.2016 21.1007 39.0116 21.3125C38.8583 21.1032 38.7016 20.8953 38.5466 20.6867C38.6883 20.4593 38.8266 20.2301 38.9549 19.9969C39.0158 19.8871 38.8233 19.7903 38.7408 19.9007C38.6091 20.0777 38.4833 20.2578 38.3599 20.4393C38.1491 20.1577 37.9408 19.8755 37.7258 19.5946C38.1324 19.0837 38.5308 18.569 38.9099 18.0452C38.9566 17.9826 38.8391 17.9322 38.7866 17.989C38.3641 18.445 37.9583 18.9093 37.5591 19.3769C37.2949 19.0353 37.0274 18.6962 36.7599 18.3559C37.1658 17.8773 37.5616 17.3936 37.9208 16.8905C37.9633 16.8304 37.8524 16.7555 37.7933 16.8136C37.3608 17.236 36.9616 17.6726 36.5716 18.1156C36.2016 17.6487 35.8291 17.185 35.4533 16.7219C35.8891 16.2065 36.2924 15.6757 36.6699 15.15C36.7099 15.0938 36.6049 15.0227 36.5491 15.0776C36.1008 15.5174 35.6524 15.9753 35.2324 16.4468C35.1499 16.3454 35.0683 16.2421 34.9849 16.1407C34.9574 16.1064 34.8891 16.1368 34.9141 16.173C34.9958 16.2905 35.0799 16.4087 35.1624 16.5269C35.1008 16.5966 35.0416 16.6664 34.9824 16.7368C34.6874 16.131 34.4383 15.5 34.2433 14.8561C34.6891 14.3362 35.0633 13.775 35.4183 13.2176C35.4599 13.1524 35.3433 13.0988 35.2933 13.1608C34.8991 13.6523 34.5116 14.156 34.1908 14.6804C34.0333 14.1308 33.9166 13.5735 33.8474 13.0161C34.1274 12.3703 34.4058 11.7245 34.6149 11.0625C34.6433 10.9708 34.4808 10.9417 34.4366 11.025C34.1949 11.4745 33.9891 11.935 33.7916 12.3981C33.7016 10.912 33.9658 9.45112 34.7066 8.17496C34.7833 8.15106 34.8624 8.1291 34.9391 8.10392C35.0658 8.06194 34.9733 7.9121 34.8474 7.936C35.2799 7.2611 35.8549 6.64433 36.5899 6.10958C36.5941 6.11023 36.5966 6.11346 36.6024 6.11346C36.9508 6.10183 37.2783 6.1225 37.5958 6.16125C37.0841 6.42475 36.5716 6.68889 36.0591 6.95175C36.0133 6.97564 36.0558 7.03183 36.1016 7.00858C36.6408 6.73087 37.1791 6.45317 37.7174 6.17481C38.9258 6.34789 39.9258 6.87425 40.7866 7.63504C40.8183 7.66281 40.8574 7.65958 40.8891 7.64602C40.9833 7.85914 41.0858 8.06904 41.1974 8.277C41.3116 8.48819 41.4349 8.69485 41.5674 8.89829C41.5608 8.90991 41.5516 8.92219 41.5449 8.9351C41.5233 8.97773 41.5883 9.00744 41.6349 8.99387ZM51.0758 14.28C51.4024 14.5803 51.7316 14.88 52.0583 15.1816C52.0108 15.2423 51.9624 15.3024 51.9149 15.3631C51.4458 15.0369 50.9683 14.7192 50.4649 14.4189C50.3166 14.3297 50.1666 14.2426 50.0166 14.1541C50.1458 13.9926 50.2791 13.8318 50.4124 13.6723C50.5783 13.8228 50.7433 13.9745 50.9083 14.1263C50.8783 14.2025 50.9766 14.2742 51.0758 14.28ZM55.2691 17.3406C55.3816 17.1985 55.4949 17.0571 55.6083 16.9144C55.8024 17.1443 55.9974 17.3723 56.1908 17.6015C56.1024 17.7204 56.0116 17.8373 55.9241 17.9561C55.8241 18.0917 56.0949 18.2144 56.1949 18.0782C56.2574 17.9936 56.3166 17.9077 56.3791 17.8231C56.5941 18.0775 56.8141 18.3294 57.0299 18.5839C56.9266 18.7356 56.8241 18.888 56.7191 19.0385C55.9099 18.2958 55.0616 17.5738 54.2474 16.8433C54.2133 16.8123 54.1774 16.7807 54.1424 16.7497C54.3608 16.4836 54.5758 16.2149 54.7849 15.945C54.9958 16.1897 55.2033 16.4371 55.4116 16.6832C55.2716 16.8601 55.1299 17.0371 54.9899 17.214C54.8808 17.3516 55.1608 17.4775 55.2691 17.3406ZM58.2666 20.5679C57.8499 20.1145 57.4024 19.6753 56.9416 19.2445C56.9433 19.2426 56.9449 19.2413 56.9466 19.2394C57.0341 19.0915 57.1249 18.9449 57.2141 18.7976C57.3308 18.9339 57.4474 19.0702 57.5641 19.2058C57.5299 19.2471 57.4941 19.2872 57.4591 19.3279C57.3424 19.4654 57.6316 19.5965 57.7449 19.457C57.7508 19.4506 57.7558 19.4435 57.7616 19.4363C57.8716 19.5636 57.9783 19.6915 58.0891 19.818C58.1941 19.9382 58.2983 20.0596 58.4024 20.1803C58.4108 20.1965 58.4224 20.2094 58.4374 20.221C58.9366 20.8042 59.4308 21.3965 59.9466 21.9758C59.9383 21.9887 59.9291 22.0016 59.9208 22.0145C59.9083 22.0352 59.9049 22.0552 59.9066 22.0733C59.4741 21.7174 59.0449 21.3571 58.6208 20.9896C58.4899 20.8759 58.3616 20.7616 58.2316 20.6479C58.2708 20.6331 58.2966 20.6008 58.2666 20.5679ZM59.9374 20.5898C60.0591 20.3741 60.1733 20.1571 60.2891 19.9388C60.4599 20.1816 60.6324 20.4238 60.8066 20.6647C60.5799 20.9999 60.3599 21.3403 60.1399 21.6806C59.6808 21.1633 59.2049 20.6531 58.7383 20.1435C59.0408 19.7515 59.3333 19.3569 59.6183 18.9591C59.7841 19.2103 59.9524 19.4609 60.1258 19.7102C59.9683 19.9608 59.8133 20.2126 59.6649 20.4665C59.5808 20.6092 59.8566 20.7332 59.9374 20.5898ZM63.0091 24.4939C62.7274 24.2866 62.4516 24.0773 62.1758 23.8681C62.3399 23.6556 62.5058 23.4437 62.6633 23.228C62.9999 23.6963 63.3466 24.16 63.7183 24.6095C63.6299 24.6831 63.5441 24.7574 63.4574 24.8316C63.3083 24.7167 63.1583 24.6037 63.0091 24.4939ZM61.9324 23.6853C61.7791 23.5677 61.6274 23.4483 61.4749 23.3301C61.3508 23.157 61.2249 22.9858 61.0924 22.816C61.1608 22.8321 61.2374 22.8205 61.2833 22.7585C61.4616 22.5202 61.6374 22.2806 61.8116 22.0397C62.0458 22.3613 62.2766 22.6868 62.5091 23.013C62.3116 23.2345 62.1224 23.4605 61.9324 23.6853ZM60.9841 22.6235C60.9749 22.6358 60.9724 22.6481 60.9683 22.6597C60.7624 22.402 60.5499 22.1482 60.3299 21.8957C60.5474 21.5611 60.7616 21.2253 60.9699 20.8882C61.1891 21.1904 61.4091 21.4907 61.6291 21.7911C61.4108 22.0668 61.1966 22.3445 60.9841 22.6235ZM60.4308 22.5008C60.3024 22.3968 60.1733 22.2929 60.0458 22.1876C60.0733 22.1902 60.1008 22.1876 60.1249 22.1766C60.2249 22.2864 60.3291 22.393 60.4308 22.5008ZM52.7224 15.9379C52.7433 15.9101 52.7649 15.8817 52.7866 15.8539C53.0941 16.1368 53.4008 16.421 53.7091 16.7032C53.3858 16.4436 53.0574 16.1878 52.7224 15.9379ZM52.4783 15.7629C52.3591 15.6757 52.2374 15.5917 52.1166 15.5058C52.1549 15.4509 52.1924 15.3954 52.2308 15.3405C52.3424 15.4445 52.4549 15.5471 52.5666 15.6511C52.5374 15.6886 52.5083 15.7254 52.4783 15.7629ZM48.9249 13.5257C48.2616 12.8824 47.5824 12.2482 46.8974 11.6179C46.9116 11.6024 46.9249 11.5862 46.9383 11.5695C47.6174 12.2353 48.3016 12.8992 48.9874 13.5619C48.9666 13.5496 48.9458 13.538 48.9249 13.5257ZM48.0683 13.0349C47.5374 12.7287 47.0116 12.4194 46.4983 12.0984C46.5908 11.9892 46.6808 11.8788 46.7716 11.7697C47.1999 12.194 47.6324 12.6157 48.0683 13.0349ZM46.7016 11.4377C46.4049 11.1652 46.1074 10.892 45.8108 10.6194C45.8358 10.5917 45.8599 10.5645 45.8849 10.5368C46.1716 10.8184 46.4583 11.0993 46.7449 11.3809C46.7308 11.3996 46.7166 11.419 46.7016 11.4377ZM46.5874 11.5869C46.4908 11.7148 46.3924 11.8414 46.2958 11.9686C45.9349 11.7387 45.5833 11.5029 45.2416 11.2588C45.3999 11.0806 45.5591 10.903 45.7174 10.7254C46.0074 11.0127 46.2974 11.2995 46.5874 11.5869ZM45.5908 10.4173C45.4216 10.2616 45.2533 10.1054 45.0849 9.94906C45.1158 9.91354 45.1466 9.87866 45.1766 9.84379C45.3416 10.0046 45.5066 10.1667 45.6708 10.3282C45.6441 10.3579 45.6174 10.3876 45.5908 10.4173ZM45.5041 10.5129C45.3341 10.7021 45.1658 10.8913 44.9966 11.0806C44.8133 10.9436 44.6324 10.8054 44.4574 10.6634C44.6433 10.4522 44.8291 10.2416 45.0133 10.0311C45.1774 10.1912 45.3416 10.3527 45.5041 10.5129ZM44.2274 10.4728C43.9708 10.2558 43.7241 10.0324 43.4891 9.79923C43.7008 9.58804 43.9074 9.37298 44.1099 9.15339C44.3424 9.37685 44.5741 9.60031 44.8041 9.82571C44.6116 10.0408 44.4199 10.2571 44.2274 10.4728ZM49.1233 29.8058C48.7083 29.6767 48.2974 29.5404 47.8916 29.3957C47.8283 29.2653 47.7649 29.1348 47.7024 29.0044C47.6199 28.8345 47.2649 28.9081 47.3483 29.0793C47.3708 29.1271 47.3933 29.1736 47.4158 29.2207C46.9849 29.0586 46.5583 28.8888 46.1391 28.7079C46.0399 28.4548 45.9366 28.2035 45.8358 27.9523C46.8741 28.4774 47.9383 28.9495 49.0158 29.3596C48.9883 29.3744 48.9683 29.3977 48.9808 29.4332C49.0233 29.5585 49.0749 29.6818 49.1233 29.8058ZM48.0483 30.5305C47.5358 30.2999 47.0283 30.0622 46.5249 29.8201C46.4574 29.5772 46.3766 29.335 46.2874 29.0954C46.7158 29.2776 47.1533 29.4493 47.6016 29.6043C47.6966 29.8 47.7916 29.9964 47.8866 30.1927C47.9408 30.3057 47.9933 30.4187 48.0483 30.5305ZM44.3791 27.8677C44.2233 27.5965 44.0666 27.3246 43.9099 27.0533C43.8149 26.8893 43.5041 27.0313 43.5983 27.1947C43.6674 27.3142 43.7366 27.4343 43.8066 27.5545C43.4191 27.3375 43.0424 27.1101 42.6758 26.8731C42.5433 26.5405 42.4074 26.2079 42.2724 25.876C43.2583 26.5321 44.2866 27.1424 45.3458 27.6985C45.4408 27.9568 45.5333 28.2184 45.6241 28.4799C45.2008 28.2868 44.7858 28.0821 44.3791 27.8677ZM44.5233 28.8132C44.0649 28.5717 43.6124 28.323 43.1649 28.0705C43.0558 27.7702 42.9158 27.4737 42.8008 27.1838C42.8008 27.1831 42.8008 27.1825 42.8008 27.1818C43.2033 27.4576 43.6183 27.7217 44.0466 27.9723C44.1166 28.0931 44.1866 28.2145 44.2566 28.3353C44.3474 28.4922 44.4291 28.6556 44.5233 28.8132ZM41.1849 26.0103C41.1724 25.9806 41.1608 25.9502 41.1483 25.9199C41.5224 26.237 41.9108 26.5424 42.3141 26.8363C42.3666 26.9758 42.4174 27.1153 42.4716 27.2542C42.5374 27.4253 42.5974 27.6036 42.6608 27.7824C42.2924 27.568 41.9291 27.3497 41.5691 27.1269C41.5483 26.7446 41.3341 26.3726 41.1849 26.0103ZM41.1816 26.8828C40.7424 26.6051 40.3108 26.3216 39.8874 26.0303C39.8358 25.6964 39.7083 25.3645 39.6166 25.0402C39.5416 24.7748 39.4658 24.5107 39.3908 24.2459C39.7708 24.6547 40.1749 25.0519 40.5966 25.4361C40.6833 25.6506 40.7699 25.8656 40.8566 26.0807C40.9616 26.3422 41.0449 26.6245 41.1816 26.8828ZM35.1466 17.0642C35.2208 16.9828 35.2949 16.9027 35.3666 16.8194C35.7108 17.3129 36.0591 17.8063 36.4116 18.2984C36.3124 18.4121 36.2141 18.5264 36.1158 18.6407C35.7608 18.1479 35.4358 17.6183 35.1466 17.0642ZM36.5941 18.5522C36.8483 18.9055 37.1008 19.26 37.3599 19.612C37.2808 19.707 37.1999 19.8019 37.1191 19.8968C36.8833 19.6211 36.6549 19.3446 36.4358 19.0656C36.3899 19.0088 36.3474 18.9494 36.3024 18.8906C36.3999 18.7782 36.4974 18.6652 36.5941 18.5522ZM37.5308 19.8393C37.7458 20.1293 37.9649 20.4161 38.1833 20.7048C38.1374 20.7745 38.0908 20.8443 38.0449 20.9134C37.7933 20.6492 37.5499 20.3818 37.3133 20.1125C37.3858 20.0221 37.4583 19.9304 37.5308 19.8393ZM38.7366 21.6186C38.5749 21.4597 38.4183 21.2996 38.2616 21.1381C38.2999 21.0781 38.3374 21.0186 38.3749 20.9586C38.5216 21.1497 38.6674 21.3409 38.8149 21.5308C38.7891 21.5605 38.7624 21.5896 38.7366 21.6186ZM39.3591 22.2141C39.2041 22.0713 39.0558 21.926 38.9058 21.7807C38.9299 21.7743 38.9533 21.7626 38.9716 21.7426C38.9741 21.7407 38.9758 21.7381 38.9783 21.7355C39.1033 21.8957 39.2316 22.0552 39.3591 22.2141ZM39.1691 21.534C39.3708 21.3209 39.5733 21.1071 39.7658 20.8882C39.9799 21.1446 40.2024 21.3958 40.4341 21.6406C40.2466 21.939 40.0641 22.2386 39.8833 22.5396C39.6483 22.2031 39.4108 21.8679 39.1691 21.534ZM40.1599 22.929C40.1208 22.8735 40.0799 22.8186 40.0408 22.7624C40.2258 22.4421 40.4074 22.1198 40.5841 21.7969C40.8416 22.0617 41.1091 22.32 41.3874 22.5706C41.1708 22.8522 40.9583 23.1357 40.7466 23.4192C40.5483 23.2571 40.3516 23.095 40.1599 22.929ZM41.5858 22.745C41.7466 22.8851 41.9108 23.024 42.0791 23.1589C41.8724 23.4205 41.6658 23.6821 41.4649 23.9475C41.4566 23.9591 41.4533 23.9707 41.4499 23.9811C41.2899 23.8564 41.1299 23.7324 40.9724 23.6058C41.1791 23.3191 41.3841 23.033 41.5858 22.745ZM41.7191 24.0625C41.9058 23.8125 42.0866 23.5606 42.2683 23.3088C42.5274 23.5109 42.7924 23.7092 43.0674 23.8991C43.0158 23.9727 42.9641 24.0463 42.9133 24.1199C42.8108 24.2691 43.1041 24.4028 43.2066 24.2523C43.2249 24.2258 43.2441 24.1981 43.2624 24.171C43.2733 24.1722 43.2849 24.1703 43.2958 24.1626C43.3233 24.1445 43.3499 24.1251 43.3774 24.107C43.5333 24.2091 43.6908 24.3098 43.8516 24.4086C43.7174 24.5746 43.5799 24.7399 43.4466 24.9066C43.3358 25.0448 43.6191 25.1726 43.7283 25.0344C43.8533 24.8762 43.9741 24.7173 44.0974 24.5591C44.1058 24.5636 44.1133 24.5688 44.1208 24.5733C44.1333 24.5882 44.1499 24.6011 44.1758 24.6121C44.1899 24.6179 44.2049 24.625 44.2191 24.6308C44.3766 24.7231 44.5374 24.8116 44.6999 24.9001C44.6974 24.9014 44.6958 24.9046 44.6933 24.9066C44.5741 25.0377 44.8449 25.1617 44.9691 25.0402C45.3174 25.2211 45.6749 25.3942 46.0458 25.5556C45.9691 25.6848 45.8941 25.8133 45.8324 25.9451C45.8141 25.9832 45.8833 25.9974 45.9099 25.9702C46.0183 25.8605 46.1183 25.7448 46.2158 25.628C46.3933 25.7035 46.5708 25.7791 46.7533 25.8495C46.8391 25.8831 46.9141 25.7862 46.8299 25.7481C46.7558 25.7145 46.6833 25.679 46.6108 25.6447C46.7416 25.7016 46.8741 25.7565 47.0058 25.8127C46.8099 26.0219 46.6158 26.2325 46.4266 26.4462C46.2974 26.5922 46.6099 26.7349 46.7349 26.5857C46.9174 26.3668 47.0949 26.1466 47.2699 25.925C47.5133 26.0284 47.7558 26.1317 47.9991 26.2344C47.6766 26.6413 47.3758 27.0591 47.0849 27.4802C45.1258 26.5302 43.2908 25.3864 41.6258 24.1161C41.6616 24.1102 41.6958 24.0941 41.7191 24.0625ZM43.5791 23.9675C44.0924 23.6175 44.6033 23.2648 45.1091 22.9071C44.7291 23.3449 44.3574 23.786 43.9949 24.2317C43.8549 24.1451 43.7166 24.0573 43.5791 23.9675ZM47.3416 27.6029C47.6658 27.1922 47.9799 26.7756 48.2716 26.3487C48.6258 26.4972 48.9833 26.6419 49.3383 26.7879C48.9758 27.196 48.6249 27.6107 48.2774 28.0285C47.9624 27.8916 47.6508 27.7502 47.3416 27.6029ZM45.7599 28.8597C45.8491 29.1045 45.9433 29.3486 46.0474 29.5882C45.7041 29.4203 45.3641 29.2485 45.0266 29.0748C44.9449 28.8035 44.7766 28.5516 44.6274 28.2965C44.9958 28.4948 45.3741 28.6821 45.7599 28.8597ZM48.5666 28.1493C48.9099 27.7295 49.2458 27.3097 49.5724 26.8841C49.8799 27.0094 50.1891 27.1334 50.4983 27.2567C50.1958 27.6836 49.9049 28.1157 49.6174 28.5497C49.6141 28.5562 49.6141 28.5613 49.6116 28.5678C49.2599 28.4354 48.9124 28.2946 48.5666 28.1493ZM32.4641 10.1447C32.3666 9.89093 32.2624 9.63841 32.1558 9.38654C32.5566 9.17858 32.9483 8.95254 33.3208 8.69356C33.3758 8.65481 33.3974 8.60767 33.3949 8.55923C33.4574 8.54179 33.5199 8.525 33.5824 8.50756C33.4083 8.82273 33.2558 9.145 33.1299 9.47631C32.8841 9.69331 32.6674 9.91741 32.4641 10.1447ZM30.3874 9.31679C30.3408 9.35296 30.2933 9.38977 30.2466 9.42594C30.2066 9.45694 30.1941 9.49246 30.1983 9.52539C29.8483 9.62679 29.4958 9.71591 29.1416 9.79212C29.2766 9.68556 29.4108 9.57771 29.5458 9.47179C29.5799 9.49375 29.6249 9.50537 29.6808 9.49116C29.9149 9.43175 30.1524 9.37427 30.3874 9.31679ZM29.9258 9.17019C30.5508 8.67612 31.1716 8.17883 31.7883 7.67767C32.1633 7.57885 32.5366 7.47487 32.9074 7.36573C32.2416 7.874 31.5816 8.38808 30.9216 8.90152C30.5891 8.99194 30.2574 9.08171 29.9258 9.17019ZM31.0991 9.14048C31.3049 9.09139 31.5116 9.03973 31.7183 8.98935C31.4424 9.10496 31.1641 9.21087 30.8841 9.3071C30.9558 9.25221 31.0274 9.19602 31.0991 9.14048ZM38.8333 5.50056C39.0516 5.54125 39.2633 5.59356 39.4674 5.6575C39.4724 5.6885 39.4924 5.71821 39.5349 5.73952C39.8149 5.88096 40.0966 6.01852 40.3816 6.15285C40.4799 6.42927 40.5474 6.67533 40.5874 6.82194C39.7341 6.28008 38.7758 5.81767 37.8441 5.36042C37.9683 5.29906 38.0899 5.23771 38.2199 5.18023C38.3141 5.21317 38.4358 5.20283 38.5174 5.11435C38.5516 5.07819 38.5841 5.04719 38.6174 5.01619C38.7649 4.95806 38.9116 4.89994 39.0674 4.84633C39.1499 4.81856 39.1933 4.77465 39.2108 4.72556C39.6408 4.72169 39.9691 5.19444 40.2016 5.70464C39.8024 5.49992 39.3316 5.38044 38.8491 5.41402C38.7883 5.41789 38.7666 5.48894 38.8333 5.50056ZM40.6608 7.04992C40.6933 7.14679 40.7324 7.24237 40.7699 7.3386C40.6583 7.20556 40.5366 7.07833 40.3974 6.96273C40.4558 6.98856 40.5133 7.01827 40.5733 7.04281C40.6024 7.05573 40.6333 7.05573 40.6608 7.04992ZM38.7908 6.15737C38.5508 6.08956 38.3041 6.03854 38.0541 6.00173C38.1324 5.96104 38.2116 5.91971 38.2908 5.87967C38.4558 5.97331 38.6233 6.06567 38.7908 6.15737ZM37.5949 5.48442C37.8024 5.60196 38.0116 5.72144 38.2208 5.84092C38.1274 5.88935 38.0333 5.93779 37.9383 5.98623C37.5666 5.93844 37.1899 5.92617 36.8233 5.94877C37.0649 5.78667 37.3199 5.63037 37.5949 5.48442ZM9.88994 2.93725C13.7774 1.51319 18.1424 0.983605 22.4099 0.895126C27.7908 0.784042 37.3074 -0.0322907 40.1124 4.53375C39.5708 4.28769 38.9399 4.28123 38.4908 4.55765C36.2699 5.35848 34.7324 6.64046 33.7849 8.16204C33.0774 8.32479 32.3741 8.50756 31.6749 8.69679C32.3541 8.17302 33.0283 7.64667 33.6974 7.11644C33.8633 7.06089 34.0316 7.00794 34.1949 6.94723C34.3133 6.90331 34.2474 6.7735 34.1349 6.76898C34.6508 6.35371 35.1633 5.93521 35.6633 5.50831C35.7341 5.4476 35.6258 5.36365 35.5474 5.41789C34.8599 5.90162 34.1899 6.39762 33.5249 6.89944C33.1391 6.98985 32.7541 7.08802 32.3724 7.19652C32.9224 6.74185 33.4616 6.28008 33.9874 5.80992C34.3858 5.67235 34.7833 5.53156 35.1783 5.38108C35.2591 5.34944 35.2024 5.24481 35.1158 5.26742C34.8633 5.33265 34.6166 5.40692 34.3674 5.47667C34.3683 5.47602 34.3699 5.47537 34.3699 5.47408C34.4516 5.39981 34.3258 5.29906 34.2316 5.36687C34.1233 5.44373 34.0208 5.52575 33.9133 5.60325C33.3041 5.78085 32.6991 5.96492 32.0941 6.1606C31.9041 6.22067 31.9866 6.4635 32.1808 6.40214C32.5716 6.27944 32.9574 6.15479 33.3433 6.02756C32.7208 6.4945 32.1074 6.96789 31.5058 7.45162C31.2033 7.54269 30.9033 7.63439 30.6033 7.72287C30.4091 7.781 30.4883 8.02254 30.6908 7.96829C30.7758 7.94633 30.8616 7.92373 30.9458 7.90112C30.1216 8.57214 29.3066 9.24962 28.4883 9.92064C27.8141 10.0395 27.1333 10.1183 26.4458 10.1661C27.2091 9.59579 27.9708 9.02423 28.7233 8.44298C28.8549 8.43587 28.9874 8.43264 29.1191 8.42489C29.2683 8.41521 29.2716 8.24794 29.1191 8.24341C29.0741 8.24212 29.0291 8.24212 28.9841 8.24212C30.2283 7.27531 31.4516 6.29171 32.6291 5.28227C32.7016 5.22092 32.5899 5.13373 32.5099 5.19056C31.1208 6.17223 29.7708 7.19458 28.4441 8.23373C27.6908 8.22146 26.9358 8.22275 26.1799 8.23567C27.4966 7.30502 28.8024 6.36598 30.0883 5.41079C29.9599 5.73887 29.8399 6.06889 29.7416 6.4015C29.7033 6.53131 29.9366 6.57717 29.9958 6.45575C30.2183 5.99462 30.3974 5.51994 30.5758 5.04525C30.9549 4.76044 31.3391 4.48015 31.7133 4.19146C31.7766 4.14237 31.6824 4.07198 31.6158 4.1159C31.3049 4.32062 31.0008 4.53117 30.6916 4.73848C30.7183 4.66937 30.7441 4.59898 30.7699 4.53052C30.8299 4.37746 30.5216 4.31223 30.4633 4.46465C30.3874 4.6584 30.3099 4.85344 30.2324 5.04783C29.6433 5.44631 29.0566 5.84608 28.4758 6.25102C28.9249 5.61358 29.1466 4.8134 29.4366 4.12494C29.4649 4.05777 29.3349 4.03452 29.3024 4.09717C28.9516 4.77271 28.4524 5.49992 28.2733 6.21485C28.2591 6.27362 28.3274 6.31754 28.3899 6.31173C27.6408 6.83485 26.8941 7.35992 26.1533 7.89014C26.6766 7.02408 27.1841 6.15027 27.6249 5.25773C27.6633 5.17958 27.4999 5.12662 27.4499 5.20025C26.7816 6.18515 26.1974 7.20492 25.6274 8.22727C25.6174 8.23308 25.6074 8.23954 25.5966 8.246C25.0008 8.25891 24.4058 8.27248 23.8116 8.28733C23.9366 8.19627 24.0649 8.10714 24.1866 8.01285C24.2749 7.94439 24.1583 7.81652 24.0491 7.87529C23.7983 8.01091 23.5533 8.15429 23.3108 8.2996C23.1266 8.30412 22.9424 8.30864 22.7591 8.31187C22.3366 8.32092 21.9149 8.32802 21.4924 8.33642C21.8024 8.15752 22.1108 7.97798 22.4133 7.79133C22.4849 7.74677 22.3924 7.66023 22.3158 7.69446C21.9491 7.85979 21.5874 8.03223 21.2266 8.2066C21.6199 7.44517 21.9533 6.66112 22.2424 5.87385C22.2716 5.79442 22.1224 5.766 22.0866 5.84027C21.6883 6.64046 21.3299 7.4626 21.0466 8.29379C21.0116 8.31123 20.9766 8.32931 20.9408 8.34804C20.0816 8.36483 19.2224 8.3855 18.3633 8.41198C18.7308 8.15687 19.0949 7.89919 19.4508 7.6331C19.5166 7.58402 19.4266 7.48714 19.3508 7.53235C18.8583 7.82104 18.3791 8.122 17.9049 8.42683C17.4033 8.44427 16.8999 8.46429 16.3983 8.48883C16.3541 8.49142 16.3424 8.53016 16.3649 8.54954C16.1458 8.55471 15.9274 8.5631 15.7083 8.5715C16.3108 8.21564 16.9066 7.85333 17.4874 7.47487C17.5524 7.43289 17.4674 7.34829 17.3974 7.38446C16.6416 7.77131 15.9074 8.18012 15.1799 8.59733C14.7349 8.62123 14.2908 8.65352 13.8483 8.69421C13.9799 8.39841 14.1024 8.10133 14.2166 7.80166C14.3949 7.69317 14.5724 7.5866 14.7474 7.48069C14.8191 7.43806 14.7266 7.34829 14.6516 7.38446C14.5391 7.44 14.4241 7.49489 14.3099 7.55044C14.6783 6.55069 14.9766 5.53415 15.2808 4.52406C15.2999 4.45883 15.1749 4.43235 15.1508 4.49694C14.7516 5.55417 14.3391 6.61592 14.0183 7.69123C13.1766 8.09746 12.3124 8.51466 11.5133 8.97902C10.7158 9.10302 9.93244 9.26125 9.15828 9.43821C9.02328 9.45306 8.88744 9.46469 8.75244 9.48148C9.76494 8.87956 10.7458 8.23567 11.6841 7.60016C11.7533 7.55302 11.6624 7.45873 11.5849 7.49941C10.3441 8.15752 9.07661 8.85954 7.88994 9.61258C7.15494 9.74175 6.42994 9.92387 5.71494 10.157C5.81244 10.0944 5.91327 10.035 6.00994 9.97102C6.16911 9.86704 6.32494 9.75983 6.48411 9.65391C6.81494 9.59708 7.14244 9.53896 7.46328 9.48083C7.56828 9.46081 7.54828 9.32196 7.43661 9.33164C7.25828 9.34714 7.07828 9.362 6.89661 9.37814C7.15578 9.20441 7.41744 9.03198 7.67494 8.85567C8.00911 8.84985 8.34328 8.83952 8.67661 8.8266C8.71744 8.84791 8.77328 8.84791 8.81077 8.82273C8.84578 8.82144 8.88078 8.82144 8.91578 8.82014C9.03661 8.81433 9.03744 8.67871 8.91578 8.67354C8.90411 8.67354 8.89244 8.67289 8.88078 8.67289C8.97828 8.39067 9.07328 8.10779 9.16411 7.82556C9.17494 7.81716 9.18577 7.81071 9.19661 7.80231C9.23077 7.77841 9.22161 7.74871 9.19494 7.72998C9.32827 7.30825 9.45078 6.88394 9.54411 6.4551C9.56161 6.37567 9.41911 6.34208 9.38578 6.42152C9.19161 6.89427 9.03327 7.37606 8.88744 7.85979C8.47161 8.11748 8.05744 8.37646 7.64494 8.63673C6.65161 8.61994 5.65911 8.6251 4.66494 8.62898C4.78577 8.41973 4.90911 8.21112 5.02411 7.99994C5.05744 7.93987 4.93077 7.90241 4.88994 7.95667C4.72327 8.17883 4.56577 8.40487 4.40494 8.63027C4.32827 8.63027 4.25244 8.63091 4.17661 8.63091C3.98411 8.63156 3.98411 8.86212 4.17661 8.86277C4.19744 8.86277 4.21744 8.86277 4.23828 8.86277C4.01827 9.176 3.80577 9.49181 3.59577 9.80891C3.37244 9.85541 3.15077 9.90321 2.93494 9.95746C2.87494 9.97296 2.88244 10.0472 2.94994 10.0453C3.11578 10.0427 3.28244 10.0362 3.44994 10.0272C3.10494 10.5542 2.76994 11.0857 2.43578 11.6172C2.04328 11.2207 1.79161 10.8164 1.66661 10.4089C2.23244 9.68685 2.72828 8.94285 3.21744 8.18529C3.25328 8.12846 3.14828 8.07937 3.10744 8.13556C2.58494 8.835 2.08078 9.5325 1.62994 10.2578C0.914942 7.19006 6.95578 4.01192 9.88994 2.93725ZM10.9533 9.32066C10.9141 9.32196 10.8741 9.3226 10.8341 9.32389C10.8841 9.31614 10.9341 9.3071 10.9849 9.3C10.9733 9.30646 10.9641 9.31356 10.9533 9.32066ZM14.6599 8.89894C14.3883 9.05652 14.1158 9.21669 13.8449 9.37621C13.0766 9.331 12.3124 9.30452 11.5541 9.30839C11.6399 9.26706 11.7258 9.22702 11.8108 9.1831C12.7549 9.05846 13.7041 8.96223 14.6599 8.89894ZM12.4449 8.84598C12.9558 8.56116 13.4549 8.26344 13.9449 7.96635C13.8758 8.21112 13.8066 8.45589 13.7491 8.7026C13.3133 8.74329 12.8774 8.78914 12.4449 8.84598ZM15.2083 8.86729C15.2933 8.86277 15.3774 8.85567 15.4624 8.85179C16.0791 8.82402 16.6958 8.81175 17.3124 8.81046C16.9341 9.05846 16.5591 9.30969 16.1833 9.56027C15.5466 9.49891 14.9108 9.44402 14.2766 9.40139C14.5874 9.22379 14.8991 9.04683 15.2083 8.86729ZM17.7816 8.81239C18.4866 8.81821 19.1899 8.84146 19.8924 8.87891C19.3333 9.17019 18.7808 9.46921 18.2299 9.76952C17.6849 9.71139 17.1399 9.65521 16.5949 9.60031C16.9916 9.33939 17.3899 9.07848 17.7816 8.81239ZM18.9333 8.57796C19.4566 8.57666 19.9791 8.57473 20.5016 8.56956C20.4399 8.60121 20.3774 8.63285 20.3158 8.6645C19.8566 8.62639 19.3958 8.59862 18.9333 8.57796ZM20.4674 8.91121C21.0199 8.94673 21.5724 8.99194 22.1241 9.04554C21.6558 9.35166 21.1924 9.66231 20.7241 9.96521C20.7008 9.98071 20.6858 9.99879 20.6758 10.0156C20.0333 9.95746 19.3874 9.89158 18.7424 9.82312C19.3208 9.5241 19.8974 9.22185 20.4674 8.91121ZM20.8324 8.70842C20.9191 8.66127 21.0074 8.61412 21.0941 8.56504C21.6491 8.55923 22.2041 8.55277 22.7591 8.54696C22.8083 8.54631 22.8583 8.54631 22.9074 8.54631C22.7258 8.65933 22.5424 8.77235 22.3633 8.8886C21.8566 8.81821 21.3466 8.75814 20.8324 8.70842ZM22.6424 9.09527C22.9649 9.12885 23.2866 9.16502 23.6083 9.20441C23.7058 9.21669 23.7499 9.1056 23.6499 9.08752C23.3841 9.04102 23.1158 8.99904 22.8474 8.95771C23.0549 8.82014 23.2616 8.68323 23.4641 8.54179C24.0224 8.53856 24.5824 8.53469 25.1424 8.53081C24.4966 8.94156 23.8674 9.37039 23.2316 9.78502C23.1366 9.84637 23.1674 9.93033 23.2416 9.97812C23.1491 10.0453 23.0558 10.1125 22.9616 10.1796C22.3583 10.1493 21.7516 10.1066 21.1441 10.0556C21.6408 9.73529 22.1458 9.41883 22.6424 9.09527ZM25.2624 8.88408C25.2316 8.93833 25.2008 8.99387 25.1708 9.04877C25.1074 9.16179 25.3174 9.26189 25.3874 9.14694C25.5141 8.94092 25.6408 8.7336 25.7666 8.52694C25.7666 8.52694 25.7674 8.52629 25.7683 8.52629C26.2299 8.52177 26.6916 8.51337 27.1524 8.50239C26.5749 8.84533 26.0424 9.24446 25.4991 9.61194C25.3216 9.73206 25.5816 9.93227 25.7574 9.81279C26.3891 9.38331 27.0799 8.97385 27.6458 8.48948C27.8133 8.48496 27.9791 8.47398 28.1466 8.46816C27.4216 9.03973 26.7041 9.61581 25.9933 10.1951C25.1341 10.2371 24.2658 10.2352 23.3924 10.2009C24.0149 9.76177 24.6383 9.3226 25.2624 8.88408ZM4.40494 10.6485C4.37411 10.6621 4.34828 10.6769 4.31911 10.6905C4.34161 10.6672 4.36411 10.644 4.38744 10.6201C4.63577 10.3676 4.90578 10.117 5.16161 9.85994C5.41744 9.82506 5.67244 9.78631 5.92578 9.74627C5.88828 9.77081 5.84994 9.79406 5.81327 9.81925C5.49661 10.0285 5.18577 10.2442 4.87661 10.4599C4.71911 10.5219 4.56077 10.58 4.40494 10.6485ZM5.48411 9.51894C5.58494 9.40656 5.68077 9.29289 5.76744 9.176C5.82827 9.09398 5.68161 9.00033 5.59578 9.07331C5.41077 9.22702 5.24494 9.39558 5.08411 9.56737C4.72161 9.61452 4.36077 9.66748 4.00661 9.73012C4.18577 9.44273 4.36077 9.15404 4.53161 8.86406C5.45244 8.86729 6.37328 8.87117 7.29411 8.86019C7.00327 9.04489 6.71578 9.23348 6.42827 9.42141C6.11494 9.45048 5.79911 9.48277 5.48411 9.51894ZM4.77411 9.90902C4.61244 10.0944 4.45327 10.2804 4.28911 10.4606C4.15411 10.6085 4.01911 10.7557 3.88411 10.903C3.42244 11.1522 3.03661 11.4345 2.71494 11.7393C3.09494 11.1613 3.47327 10.5833 3.83994 10.0014C4.14994 9.97748 4.46244 9.94712 4.77411 9.90902ZM7.97994 8.64512C8.26328 8.45073 8.54494 8.25504 8.82744 8.05806C8.76828 8.26085 8.70994 8.46364 8.65244 8.66579C8.42828 8.65739 8.20411 8.65029 7.97994 8.64512ZM1.04661 11.1419C1.27244 11.4661 1.58661 11.7806 2.01328 12.0797C2.04578 12.1029 2.07911 12.1184 2.11244 12.13C2.10328 12.1449 2.09328 12.1617 2.08328 12.1772C2.03328 12.2566 2.10161 12.3283 2.18328 12.3496C1.78578 12.9192 1.59411 13.5457 1.61578 14.1902C1.29244 13.2183 1.11661 12.2127 1.04661 11.1419ZM3.84661 11.9789C7.94994 9.05458 15.0958 10.3837 19.9716 10.7957C23.0033 11.0521 26.2699 11.151 29.1874 10.4625C27.5824 11.2976 26.0249 12.1972 24.4691 13.0788C24.3416 13.1511 24.4608 13.3184 24.5958 13.2467C26.4883 12.2527 28.4066 11.2614 30.2216 10.1809C30.7849 10.0027 31.3333 9.79341 31.8583 9.54154C31.9724 9.80246 32.0899 10.064 32.2158 10.3236C32.2266 10.3462 32.2449 10.3617 32.2649 10.3753C31.9791 10.7221 31.7391 11.0786 31.5416 11.4429C31.5316 11.1878 31.5216 10.9333 31.5049 10.6789C31.4999 10.6046 31.3649 10.6059 31.3574 10.6789C31.3233 10.9772 31.2974 11.275 31.2691 11.574C31.0866 11.3802 30.8916 11.1923 30.6949 11.0056C30.7566 10.9617 30.8208 10.9191 30.8808 10.8745C30.9616 10.8164 30.8524 10.6989 30.7599 10.7525C30.6916 10.7925 30.6258 10.8345 30.5583 10.8745C30.4541 10.7757 30.3499 10.6769 30.2491 10.5768C30.1691 10.4987 30.0583 10.5239 29.9949 10.5846C29.8658 10.4948 29.6116 10.5691 29.6899 10.7157C29.7816 10.8881 29.8716 11.0612 29.9616 11.2349C28.4099 12.1772 26.9183 13.1827 25.4191 14.1728C25.2583 14.2794 25.4908 14.4557 25.6508 14.3524C26.3066 13.9293 26.9666 13.507 27.6241 13.0826C27.6933 13.4043 27.7641 13.7252 27.8349 14.0462C27.2266 14.5054 26.6216 14.9659 26.0124 15.418C25.8624 15.5297 26.0891 15.7054 26.2416 15.5949C26.7924 15.1932 27.3516 14.7947 27.9108 14.3943C27.9841 14.7192 28.0633 15.044 28.1399 15.3689C27.8374 15.6162 27.5358 15.8642 27.2341 16.1129C27.2208 16.0793 27.1633 16.0548 27.1149 16.0845C25.4141 17.1081 23.7524 18.1847 22.1299 19.2885C22.0799 19.2904 22.0299 19.2936 21.9799 19.2956C21.8441 19.3007 21.8024 19.4105 21.8516 19.4809C21.5666 19.676 21.2824 19.8716 20.9999 20.068C20.2541 20.046 19.5091 20.0086 18.7649 19.9575C19.3033 19.6159 19.8416 19.2749 20.3766 18.932C20.4324 18.9726 20.4849 19.0179 20.5424 19.056C20.6349 19.1154 20.7816 19.0405 20.7158 18.952C20.6774 18.8997 20.6291 18.8506 20.5849 18.7989C21.5491 18.1802 22.5099 17.5563 23.4616 16.9241C23.5366 16.8737 23.4291 16.7962 23.3549 16.8414C22.3733 17.4297 21.3999 18.0259 20.4308 18.6265C20.1558 18.3488 19.8258 18.0937 19.5349 17.836C19.0841 17.4375 18.6416 17.0261 18.1474 16.6606C18.1158 16.6367 18.0574 16.6677 18.0841 16.698C18.4266 17.0958 18.8241 17.4653 19.2091 17.8386C19.5233 18.1453 19.8274 18.4902 20.1791 18.7841C19.5691 19.1638 18.9608 19.5455 18.3533 19.9278C16.9783 19.8238 15.6074 19.6824 14.2433 19.5281C11.3749 19.2045 8.21828 18.9675 5.72994 17.7184C3.33078 16.5152 1.28328 13.8047 3.84661 11.9789ZM27.4983 23.0194C27.6424 22.9632 27.7874 22.9083 27.9316 22.8535C27.9133 22.9161 27.8883 22.98 27.8733 23.0446C27.8666 23.0743 27.8799 23.1015 27.9016 23.1234C27.4916 23.1854 27.0791 23.241 26.6633 23.29C27.1883 22.8806 27.7133 22.4718 28.2291 22.0565C28.1591 22.2121 28.0933 22.3691 28.0341 22.5267C27.8016 22.6184 27.5683 22.7114 27.3341 22.8024C27.1474 22.8754 27.3124 23.0918 27.4983 23.0194ZM28.3308 22.6997C28.6366 22.5828 28.9416 22.4647 29.2474 22.3471C29.3108 22.4182 29.4699 22.4472 29.5524 22.3516C29.6033 22.2922 29.6516 22.2328 29.7016 22.1727C29.9374 22.081 30.1724 21.9887 30.4091 21.8957C30.2566 22.174 30.1233 22.4563 30.0283 22.7404C29.3941 22.8735 28.7558 22.9871 28.1141 23.0898C28.1941 22.9626 28.2658 22.8321 28.3308 22.6997ZM30.0283 21.74C30.0633 21.6483 29.9099 21.5527 29.8166 21.6367C29.7058 21.7375 29.6024 21.8414 29.5016 21.9461C29.1624 22.0791 28.8241 22.2128 28.4866 22.3471C28.5891 22.1011 28.6833 21.8537 28.7774 21.6083C28.9666 21.4526 29.1524 21.2951 29.3383 21.1375C29.8716 20.9935 30.4041 20.8462 30.9299 20.6854C31.0208 20.657 30.9874 20.5465 30.8883 20.5679C30.4799 20.6563 30.0741 20.7519 29.6699 20.8507C29.7658 20.7661 29.8658 20.6847 29.9608 20.5995C30.0324 20.5356 29.9233 20.4497 29.8399 20.5065C29.6166 20.6596 29.3991 20.8165 29.1799 20.9728C29.1266 20.9863 29.0724 20.9999 29.0183 21.0135C29.1183 20.7739 29.2108 20.5323 29.3024 20.2901C30.1949 20.0589 31.0458 19.7586 31.8366 19.3776C31.5633 19.8484 31.2933 20.3192 31.0366 20.7952C30.9083 21.0316 30.7658 21.2712 30.6249 21.5127C30.4258 21.5883 30.2266 21.6632 30.0283 21.74ZM9.81744 22.289C9.39744 22.1747 8.98994 22.0378 8.59494 21.8731C8.69077 21.8279 8.78828 21.7865 8.88328 21.74C9.27994 21.8524 9.68077 21.957 10.0874 22.0475C10.0049 22.1011 9.91827 22.1527 9.83661 22.207C9.80161 22.2309 9.80328 22.2612 9.81744 22.289ZM7.47078 21.2892C7.47244 21.2873 7.47411 21.2867 7.47578 21.286C7.81494 21.4087 8.15828 21.5256 8.50828 21.6322C8.44578 21.6709 8.38578 21.7103 8.32411 21.7491C8.03078 21.6141 7.74578 21.4623 7.47078 21.2892ZM7.81494 21.1045C8.02828 20.9909 8.23994 20.8759 8.44994 20.759C8.75911 20.8914 9.07744 21.0109 9.40244 21.12C9.22078 21.2176 9.04411 21.3202 8.86744 21.4216C8.51328 21.3241 8.16244 21.2208 7.81494 21.1045ZM9.28411 21.5334C9.46161 21.4423 9.63828 21.35 9.81244 21.2531C10.1758 21.3629 10.5408 21.4539 10.9041 21.5314C10.7599 21.618 10.6199 21.7084 10.4783 21.7969C10.0774 21.7194 9.67828 21.6328 9.28411 21.5334ZM10.1491 21.0626C10.3374 20.9541 10.5233 20.8449 10.7066 20.7332C11.0274 20.8565 11.3533 20.9721 11.6824 21.0774C11.5208 21.1685 11.3624 21.2641 11.2024 21.3571C10.8483 21.2647 10.4974 21.1665 10.1491 21.0626ZM11.3133 21.6141C11.5208 21.6516 11.7283 21.6858 11.9308 21.7123C12.0591 21.7291 12.1133 21.5902 11.9849 21.5586C11.8524 21.5243 11.7199 21.4895 11.5874 21.4559C11.7399 21.3667 11.8949 21.2796 12.0466 21.1885C12.4899 21.3183 12.9408 21.4294 13.4016 21.5108C13.0599 21.7 12.7208 21.8918 12.3849 22.0849C11.8708 22.03 11.3616 21.959 10.8583 21.8698C11.0116 21.7865 11.1616 21.7006 11.3133 21.6141ZM15.8324 20.5536C16.3808 20.6098 16.9491 20.666 17.5299 20.7177C17.0808 20.9618 16.6383 21.2143 16.2033 21.4752C15.8758 21.4785 15.5491 21.4804 15.2224 21.4823C14.9041 21.4494 14.5874 21.4145 14.2708 21.3758C14.5983 21.184 14.9208 20.9883 15.2308 20.7829C15.3291 20.7177 15.2033 20.5969 15.0949 20.646C14.6449 20.852 14.2074 21.0781 13.7741 21.3112C13.2649 21.2415 12.7599 21.1594 12.2624 21.0555C12.6591 20.8139 13.0474 20.5659 13.4366 20.3192C14.2558 20.4012 15.0616 20.4748 15.8324 20.5536ZM26.9508 16.7258C27.2249 16.4997 27.4983 16.2718 27.7724 16.0457C27.8091 16.069 27.8591 16.0832 27.9191 16.0722C28.0124 16.0567 28.1058 16.0419 28.1991 16.0264C28.1591 16.0632 28.1441 16.1161 28.1849 16.1704C28.3066 16.3344 28.4283 16.4972 28.5491 16.6606C27.6524 16.864 26.7624 17.0913 25.8733 17.2896C25.6699 17.3348 25.7566 17.5809 25.9608 17.535C26.5166 17.4117 27.0816 17.2973 27.6466 17.1817C27.6841 17.2321 27.7224 17.2838 27.7608 17.3348C27.7574 17.3374 27.7533 17.34 27.7499 17.3426C27.7358 17.3522 27.7291 17.3652 27.7216 17.3761C27.3516 17.586 26.9833 17.7992 26.6158 18.0142C25.7791 18.166 24.9316 18.2816 24.0774 18.3559C25.0316 17.7165 25.9699 17.0623 26.8908 16.3964C26.8316 16.4449 26.7724 16.4933 26.7133 16.5424C26.5666 16.6644 26.8024 16.8485 26.9508 16.7258ZM15.4424 21.5702C15.6399 21.5715 15.8366 21.5734 16.0341 21.5753C15.6774 21.7917 15.3233 22.0106 14.9708 22.2309C14.2766 22.227 13.5883 22.1934 12.9066 22.134C13.2416 21.9551 13.5733 21.7723 13.9024 21.5863C14.3724 21.6477 14.8508 21.6832 15.3391 21.6774C15.4299 21.6761 15.4583 21.6206 15.4424 21.5702ZM16.6199 21.5812C17.2258 21.5883 17.8316 21.5954 18.4374 21.6031C18.1174 21.7898 17.8049 21.9829 17.4983 22.1811C17.4766 22.1547 17.4408 22.1359 17.3924 22.1392C16.7799 22.1889 16.1699 22.216 15.5641 22.2263C15.9191 22.0145 16.2699 21.7995 16.6199 21.5812ZM17.2116 22.3723C17.0899 22.4543 16.9641 22.5325 16.8449 22.6171C16.8324 22.6261 16.8316 22.6371 16.8266 22.6481C16.2374 22.6306 15.6466 22.5971 15.0558 22.5473C15.7799 22.5305 16.5008 22.4718 17.2116 22.3723ZM18.9716 21.6096C19.1349 21.6115 19.2974 21.6135 19.4599 21.6154C19.7516 21.6516 20.0441 21.6858 20.3366 21.7168C19.8833 22.0229 19.4324 22.3329 18.9824 22.6429C18.3741 22.6636 17.7633 22.6668 17.1533 22.6545C17.7799 22.3323 18.3841 21.979 18.9716 21.6096ZM20.7791 21.7542C20.9266 21.7672 21.0741 21.7827 21.2233 21.7923C21.3391 21.8001 21.3649 21.6787 21.2824 21.6348C21.6766 21.6373 22.0699 21.6393 22.4633 21.6399C22.0433 21.917 21.6349 22.2018 21.2424 22.4957C20.6666 22.5518 20.0899 22.5938 19.5116 22.6216C19.9358 22.3342 20.3591 22.0455 20.7791 21.7542ZM23.5033 20.9857C23.2708 21.1291 23.0358 21.2699 22.8058 21.4178C22.2874 21.4171 21.7683 21.4191 21.2499 21.4229C21.4583 21.2763 21.6641 21.1278 21.8699 20.9792C22.4133 20.9915 22.9591 20.9941 23.5033 20.9857ZM23.1383 21.6393C23.5966 21.6386 24.0541 21.6348 24.5133 21.6296C24.2733 21.8059 24.0324 21.9822 23.7941 22.1592C23.1733 22.2632 22.5491 22.3516 21.9233 22.424C22.3358 22.1727 22.7399 21.9099 23.1383 21.6393ZM23.4566 21.4203C23.6699 21.2725 23.8791 21.1213 24.0891 20.9708C24.5766 20.9553 25.0616 20.9282 25.5433 20.8908C25.2883 21.071 25.0324 21.2498 24.7808 21.4339C24.3391 21.4268 23.8983 21.4229 23.4566 21.4203ZM25.5708 19.9001C25.6124 19.8697 25.6541 19.8393 25.6949 19.809C25.7574 19.7644 25.6724 19.674 25.6024 19.716C25.4758 19.7909 25.3466 19.8691 25.2191 19.9446C24.7266 19.9976 24.2199 20.0312 23.7058 20.0551C24.1133 19.831 24.5183 19.6036 24.9199 19.3711C26.2516 19.2426 27.5791 19.0262 28.8149 18.6807C28.9708 18.8635 29.1324 19.0398 29.2999 19.2122C28.0666 19.5061 26.8441 19.7457 25.5708 19.9001ZM27.8749 17.5725C27.8941 17.5725 27.9133 17.5712 27.9333 17.5654C27.9708 17.6151 28.0083 17.6661 28.0466 17.7152C27.9616 17.7359 27.8799 17.7591 27.7949 17.7785C27.6749 17.805 27.5533 17.8282 27.4316 17.8534C27.5799 17.7598 27.7274 17.6661 27.8749 17.5725ZM27.8499 17.2638C27.8133 17.2302 27.7766 17.196 27.7408 17.163C27.8483 17.1411 27.9549 17.1191 28.0624 17.0958C27.9916 17.1527 27.9208 17.2089 27.8499 17.2638ZM28.2633 18C28.3716 18.1395 28.4833 18.2797 28.5958 18.4192C27.7491 18.6013 26.9049 18.7905 26.0383 18.9229C25.8858 18.9462 25.7316 18.9642 25.5783 18.9856C25.9558 18.7615 26.3308 18.5348 26.7024 18.3048C27.2283 18.2209 27.7491 18.1182 28.2633 18ZM31.2783 17.2935C31.2141 17.2199 31.1566 17.143 31.0974 17.0668C31.1291 17.0526 31.1616 17.0384 31.1933 17.0242C31.2208 17.1146 31.2483 17.2037 31.2783 17.2935ZM30.9716 16.9066C30.8658 16.76 30.7674 16.6108 30.6716 16.4597C30.7833 16.4268 30.8958 16.3945 31.0066 16.359C31.0091 16.3583 31.0091 16.3557 31.0116 16.3551C31.0508 16.5236 31.0933 16.6922 31.1416 16.8595C31.0849 16.8756 31.0283 16.8911 30.9716 16.9066ZM30.9549 16.2136C30.8208 16.2311 30.6883 16.2517 30.5549 16.2718C30.4499 16.1032 30.3449 15.9346 30.2383 15.7687C30.2841 15.7273 30.3324 15.6873 30.3774 15.646C30.5399 15.6124 30.6991 15.571 30.8591 15.5316C30.8899 15.7596 30.9283 15.9889 30.9783 16.2169C30.9691 16.2169 30.9641 16.2117 30.9549 16.2136ZM29.0999 16.8717C29.2366 16.8401 29.3708 16.8072 29.5058 16.7749C29.6058 16.9299 29.7058 17.0842 29.8083 17.2386C29.6891 17.2735 29.5691 17.307 29.4499 17.3413C29.3341 17.185 29.2166 17.0274 29.0999 16.8717ZM29.6758 18.1983C29.4416 18.2422 29.2074 18.29 28.9749 18.3384C28.8383 18.2009 28.6991 18.0652 28.5599 17.9309C28.8216 17.8663 29.0783 17.7946 29.3333 17.7191C29.4466 17.8773 29.5591 18.0394 29.6758 18.1983ZM29.3074 15.8429C29.3491 15.8371 29.3916 15.83 29.4333 15.8223C29.4716 15.8623 29.5091 15.9024 29.5458 15.9417C29.5091 15.9695 29.4733 15.9973 29.4366 16.0244C29.3933 15.9644 29.3499 15.9043 29.3074 15.8429ZM29.7166 16.4139C29.6858 16.3719 29.6549 16.3286 29.6241 16.286C29.6716 16.2485 29.7191 16.2117 29.7658 16.1742C29.8291 16.2395 29.8924 16.3047 29.9549 16.3719C29.8758 16.3854 29.7958 16.3996 29.7166 16.4139ZM30.1766 16.6024C30.3083 16.7413 30.4408 16.8789 30.5733 17.0177C30.4558 17.0513 30.3374 17.0842 30.2199 17.1191C30.1158 16.9706 30.0108 16.822 29.9041 16.6754C29.9958 16.6515 30.0858 16.627 30.1766 16.6024ZM30.0166 15.9631C30.0566 15.9288 30.0958 15.8933 30.1358 15.8584C30.2199 16.0037 30.3049 16.1504 30.3924 16.2963C30.3749 16.2989 30.3566 16.3008 30.3391 16.3034C30.2308 16.191 30.1249 16.0761 30.0166 15.9631ZM30.8274 15.2462C30.8299 15.2694 30.8324 15.2914 30.8349 15.3146C30.4099 15.3605 29.9866 15.4199 29.5649 15.4929C29.3974 15.3179 29.2299 15.1429 29.0624 14.9678C29.3916 14.6914 29.7183 14.4118 30.0433 14.1328C30.3016 14.5041 30.5608 14.8768 30.8274 15.2462ZM30.3191 13.8964C30.5041 13.7356 30.6883 13.5735 30.8716 13.4114C30.8124 13.7821 30.7833 14.1567 30.7858 14.5345C30.6308 14.3207 30.4741 14.1082 30.3191 13.8964ZM29.1866 15.5601C29.1633 15.5652 29.1408 15.5691 29.1183 15.573C29.0866 15.5278 29.0549 15.4826 29.0233 15.4374C28.9166 15.2817 28.6116 15.4199 28.7174 15.5756C28.7324 15.5962 28.7449 15.6182 28.7591 15.6389C28.6324 15.6621 28.5049 15.6854 28.3783 15.7086C28.3691 15.6608 28.3591 15.6124 28.3499 15.5652C28.5066 15.4335 28.6633 15.303 28.8191 15.1719C28.9416 15.3011 29.0641 15.4309 29.1866 15.5601ZM28.9358 15.9049C29.0083 16.0154 29.0824 16.1258 29.1558 16.2375C29.0433 16.3234 28.9316 16.4087 28.8216 16.4952C28.7083 16.3428 28.5941 16.1897 28.4799 16.0367C28.4674 16.0199 28.4516 16.007 28.4349 15.9966C28.4349 15.9941 28.4333 15.9902 28.4333 15.9876C28.6008 15.9611 28.7674 15.9321 28.9358 15.9049ZM29.1249 17.433C28.8433 17.5124 28.5591 17.588 28.2733 17.659C28.2074 17.597 28.1416 17.5344 28.0749 17.473C28.1574 17.4097 28.2424 17.3464 28.3258 17.2825C28.4808 17.183 28.6366 17.0842 28.7908 16.9848C28.9024 17.134 29.0133 17.2838 29.1249 17.433ZM29.6799 19.1218C29.5266 18.9358 29.3666 18.7498 29.1949 18.569C29.4024 18.5051 29.6091 18.4398 29.8108 18.3675C29.9258 18.5109 30.0458 18.6517 30.1849 18.7789C30.2683 18.8557 30.4183 18.7711 30.3891 18.6865C30.3899 18.6859 30.3899 18.6859 30.3908 18.6859C30.3874 18.6788 30.3824 18.6717 30.3791 18.6652C30.3791 18.6639 30.3791 18.6639 30.3783 18.6633C30.3783 18.6633 30.3783 18.6626 30.3774 18.6626C30.2041 18.2971 29.9266 17.9593 29.6649 17.6235C29.7766 17.588 29.8833 17.5447 29.9924 17.5066C30.2924 17.9496 30.6033 18.3856 30.9533 18.7957C30.5249 18.9087 30.0999 19.0178 29.6799 19.1218ZM31.2266 18.7234C31.2249 18.7188 31.2258 18.7137 31.2249 18.7085C31.2224 18.7027 31.2183 18.6969 31.2149 18.6911C31.2124 18.6872 31.2133 18.6846 31.2099 18.6807C31.2099 18.6801 31.2091 18.6794 31.2083 18.6788C30.9683 18.2332 30.6883 17.7972 30.3908 17.3658C30.5166 17.3174 30.6391 17.2657 30.7616 17.2147C30.8366 17.2922 30.9108 17.371 30.9858 17.4472C31.0858 17.5505 31.2799 17.506 31.3166 17.4136C31.4524 17.805 31.6099 18.1938 31.7874 18.5767C31.7733 18.5793 31.7599 18.5813 31.7458 18.5845C31.5708 18.6323 31.3999 18.6768 31.2266 18.7234ZM31.0991 12.4743C31.0841 12.4407 31.0691 12.4071 31.0533 12.3722C31.0391 12.3406 31.0008 12.3302 30.9666 12.3348C30.9341 12.2741 30.9016 12.214 30.8691 12.1539C30.9633 12.0751 31.0633 12.0009 31.1566 11.9214C31.1933 11.9531 31.2291 11.986 31.2658 12.0177C31.2033 12.1688 31.1491 12.3212 31.0991 12.4743ZM30.7658 11.9641C30.6333 11.7212 30.5016 11.4784 30.3691 11.2362C30.3824 11.2265 30.3966 11.2162 30.4099 11.2071C30.6058 11.4074 30.8049 11.6069 31.0149 11.7968C30.9299 11.851 30.8491 11.9098 30.7658 11.9641ZM30.4499 12.1746C29.6141 12.732 28.8058 13.3171 28.0108 13.9145C27.9424 13.598 27.8741 13.2829 27.8049 12.9657C28.5716 12.4691 29.3299 11.9634 30.0716 11.4461C30.1974 11.6889 30.3233 11.9318 30.4499 12.1746ZM30.5666 12.3981C30.6874 12.6293 30.8099 12.8585 30.9333 13.0872C30.9291 13.1085 30.9233 13.1298 30.9191 13.1511C30.6749 13.3397 30.4308 13.5289 30.1891 13.7194C30.1366 13.6465 30.0824 13.5741 30.0308 13.5018C29.9141 13.3377 29.5891 13.4844 29.7058 13.6484C29.7749 13.7453 29.8424 13.8434 29.9099 13.9397C29.5624 14.2161 29.2166 14.4925 28.8733 14.7715C28.8399 14.7353 28.8058 14.7005 28.7724 14.6656C28.6399 14.5267 28.3366 14.6617 28.4699 14.8019C28.5233 14.858 28.5758 14.9142 28.6283 14.9704C28.5149 15.0628 28.4016 15.1558 28.2874 15.2488C28.2216 14.9213 28.1583 14.5945 28.0874 14.2677C28.9349 13.6594 29.7691 13.0413 30.5666 12.3981ZM28.2291 15.737C28.1924 15.7435 28.1558 15.7506 28.1199 15.757C28.1516 15.7312 28.1833 15.7034 28.2149 15.6776C28.2191 15.6976 28.2241 15.717 28.2291 15.737ZM25.9249 18.4198C25.5616 18.6362 25.2049 18.8577 24.8474 19.0792C24.1374 19.1619 23.4224 19.2213 22.7058 19.26C23.0708 19.0224 23.4333 18.7834 23.7949 18.5425C23.8099 18.5929 23.8591 18.6336 23.9466 18.6258C24.5949 18.5755 25.2591 18.5076 25.9249 18.4198ZM24.2924 19.4234C23.9608 19.634 23.6408 19.8536 23.3174 20.0699C23.1849 20.0744 23.0566 20.0828 22.9224 20.0848C22.4249 20.0925 21.9283 20.0873 21.4324 20.0777C21.7208 19.8949 22.0091 19.7121 22.2966 19.5274C22.9508 19.5087 23.6183 19.4757 24.2924 19.4234ZM21.4624 20.9689C21.2299 21.1207 20.9966 21.2731 20.7658 21.4268C20.5366 21.4294 20.3074 21.43 20.0774 21.4333C19.8491 21.4016 19.6208 21.3706 19.3908 21.3422C19.6149 21.1975 19.8366 21.0522 20.0583 20.9063C20.5233 20.9321 20.9916 20.9547 21.4624 20.9689ZM18.9791 21.2931C18.5874 21.2466 18.1949 21.2008 17.8041 21.1523C17.6049 21.1278 17.5183 21.3642 17.7199 21.3893C17.8858 21.41 18.0533 21.4326 18.2191 21.4546C17.7449 21.4597 17.2699 21.4656 16.7966 21.4701C17.1674 21.2363 17.5316 20.9967 17.8874 20.7493C18.4866 20.801 19.0991 20.8475 19.7208 20.8862C19.4733 21.0219 19.2258 21.1549 18.9791 21.2931ZM12.3624 22.4253C12.6599 22.4582 12.9574 22.486 13.2558 22.5066C13.2608 22.546 13.2924 22.5816 13.3616 22.5912C13.6466 22.6306 13.9324 22.6655 14.2191 22.6985C14.1716 22.7282 14.1241 22.7579 14.0766 22.7876C13.4716 22.6888 12.8666 22.5854 12.2566 22.4821C12.2916 22.4627 12.3274 22.444 12.3624 22.4253ZM18.5966 23.3036C17.1966 23.2455 15.8508 23.0698 14.5066 22.8573C14.5691 22.8199 14.6308 22.7831 14.6933 22.7469C15.9824 22.8741 17.2866 22.9316 18.5891 22.9142C18.5699 22.9271 18.5516 22.94 18.5324 22.9536C18.3766 23.0601 18.6058 23.2358 18.7608 23.1305C18.8724 23.055 18.9841 22.9794 19.0949 22.9038C19.6791 22.887 20.2624 22.8554 20.8433 22.8076C20.7599 22.8741 20.6741 22.9387 20.5933 23.0059C20.5249 23.0621 20.6141 23.1628 20.7041 23.117C20.9249 23.002 21.1424 22.8819 21.3591 22.7585C22.0224 22.6926 22.6824 22.6087 23.3366 22.5002C23.2266 22.5828 23.1166 22.6649 23.0066 22.7469C22.8508 22.8625 23.0849 23.0414 23.2416 22.929C23.4974 22.7462 23.7524 22.5635 24.0083 22.3801C24.9024 22.2108 25.7849 22.0022 26.6466 21.7491C26.7708 21.7123 26.7216 21.5592 26.5899 21.5921C25.8916 21.7594 25.1883 21.9073 24.4824 22.0391C24.6741 21.9002 24.8649 21.7607 25.0558 21.6218C25.2458 21.618 25.4366 21.6167 25.6283 21.6128C25.7658 21.6102 25.7658 21.4507 25.6283 21.4468C25.5191 21.4449 25.4099 21.4436 25.3016 21.4423C25.5691 21.244 25.8324 21.0425 26.0958 20.8417C26.9074 20.761 27.7058 20.6434 28.4783 20.4826C27.2899 21.2757 26.1566 22.1185 25.0141 22.9516C24.9908 22.9691 24.9758 22.9878 24.9674 23.0072C22.8566 23.2629 20.7349 23.3908 18.5966 23.3036ZM3.02494 16.9602C5.40161 19.2762 9.38994 19.9001 13.1291 20.2869C12.7083 20.5104 12.2891 20.7358 11.8749 20.967C11.5133 20.883 11.1566 20.7848 10.8058 20.6718C10.9516 20.5821 11.1008 20.4929 11.2416 20.4012C11.3316 20.3444 11.2166 20.2365 11.1208 20.2798C10.9133 20.3715 10.7049 20.471 10.4983 20.5698C10.4683 20.5588 10.4383 20.5504 10.4083 20.5394C10.3566 20.5207 10.3099 20.5788 10.3624 20.6008C10.3749 20.6053 10.3874 20.6098 10.3999 20.615C10.1808 20.7203 9.96411 20.8301 9.74744 20.9418C9.50828 20.8643 9.27161 20.7829 9.03661 20.6938C8.94328 20.6576 8.85494 20.6169 8.76411 20.5788C9.08994 20.3922 9.41161 20.1997 9.71994 19.9918C9.78827 19.9453 9.70078 19.8639 9.62411 19.8968C9.22411 20.068 8.83994 20.2566 8.46161 20.4529C7.79161 20.1558 7.16161 19.8155 6.49327 19.5126C6.43411 19.4854 6.37327 19.5474 6.42077 19.5855C6.89911 19.975 7.49244 20.3224 8.13994 20.6227C7.91661 20.7409 7.69411 20.8617 7.47328 20.9831C7.15161 20.8701 6.83327 20.7448 6.51827 20.6156C5.54077 19.8529 4.67744 18.9739 3.91578 18.0988C3.58411 17.7191 3.29078 17.34 3.02494 16.9602ZM9.98411 22.331C10.1241 22.2606 10.2608 22.1844 10.3999 22.1114C10.8941 22.2141 11.3933 22.2993 11.8974 22.3665C11.7924 22.4278 11.6866 22.4892 11.5816 22.5493C11.5358 22.5751 11.5183 22.6113 11.5166 22.6474C10.9933 22.5609 10.4808 22.4595 9.98411 22.331ZM11.8433 22.701C11.9374 22.6507 12.0316 22.6009 12.1258 22.5512C12.6166 22.7043 13.1266 22.8315 13.6441 22.9432C13.2991 22.9 12.9533 22.8573 12.6091 22.8108C12.3516 22.7753 12.0966 22.7391 11.8433 22.701ZM21.8241 23.5309C22.9149 23.4735 24.0008 23.3598 25.0674 23.1815C25.1324 23.2074 25.2141 23.208 25.2824 23.1589C25.2899 23.1531 25.2974 23.148 25.3041 23.1434C25.3391 23.1363 25.3741 23.1318 25.4091 23.1253C25.4858 23.1124 25.4991 23.0614 25.4766 23.0188C26.6683 22.1534 27.8716 21.2931 28.9974 20.3767C28.8874 20.6169 28.7816 20.8585 28.6758 21.0987C28.6608 21.1026 28.6449 21.1058 28.6299 21.1097C28.5149 21.1388 28.5183 21.2466 28.5858 21.2931C28.5599 21.35 28.5341 21.4061 28.5074 21.463C27.6716 22.0836 26.8583 22.7223 26.0433 23.3598L26.0424 23.3604C25.2191 23.4425 24.3808 23.498 23.5191 23.52C22.9541 23.5342 22.3891 23.5355 21.8241 23.5309ZM32.0216 22.2703C32.2274 21.9758 32.3674 21.6457 32.5274 21.3364C32.6099 21.1782 32.2783 21.1091 32.1983 21.266C32.0349 21.5831 31.8324 21.9041 31.7266 22.2373C31.7141 22.2774 31.7308 22.3116 31.7599 22.3361C31.3024 22.4511 30.8441 22.559 30.3858 22.6591C30.5808 22.3562 30.7374 22.0313 30.8858 21.7058C31.4149 21.4933 31.9408 21.2763 32.4566 21.0471C32.5899 20.9876 32.4733 20.8456 32.3399 20.8908C31.9066 21.0374 31.4766 21.1917 31.0508 21.35C31.0991 21.244 31.1474 21.1368 31.1983 21.0341C31.4833 20.4555 31.7549 19.8742 32.0191 19.2891C32.0474 19.2749 32.0774 19.2613 32.1066 19.2465C32.1091 19.2452 32.1116 19.2432 32.1141 19.242C32.4158 19.818 32.7558 20.3812 33.1224 20.9218C33.3241 21.2208 33.5333 21.5133 33.7474 21.8033C33.1691 21.9693 32.5949 22.1237 32.0216 22.2703ZM31.7474 13.9442C31.7616 13.919 31.7658 13.8919 31.7491 13.8609C31.7491 13.8602 31.7483 13.8589 31.7483 13.8589C31.7816 12.6512 32.1174 11.4539 32.8624 10.3062C32.3891 12.1281 32.5616 14.1037 33.2658 15.9256C33.2249 16.0716 33.1566 16.2207 33.0599 16.3596C32.9599 16.0806 32.8624 15.8016 32.7774 15.5207C32.7658 15.4845 32.6941 15.5 32.7049 15.5368C32.8008 15.85 32.8824 16.1678 32.9608 16.4849C32.8058 16.6664 32.6091 16.8201 32.3791 16.9034C32.3416 16.9163 32.3683 16.9686 32.4083 16.9557C32.6441 16.8827 32.8433 16.8097 33.0133 16.6948C33.1249 17.1527 33.2333 17.6125 33.3649 18.0672C33.6016 18.8848 33.7541 19.7903 34.1574 20.5679C34.2016 20.655 34.4008 20.6563 34.3883 20.5446C34.3016 19.7289 33.9299 18.8958 33.6774 18.1027C33.5158 17.5964 33.3258 17.0933 33.1424 16.5902C33.1791 16.5559 33.2166 16.5249 33.2491 16.4836C33.3133 16.4042 33.3558 16.3189 33.3891 16.233C33.5083 16.514 33.6391 16.791 33.7841 17.0629C33.9091 17.298 34.0433 17.5331 34.1816 17.7669C34.1324 17.8386 34.0808 17.9109 34.0333 17.9832C33.9908 18.0485 34.1024 18.1272 34.1708 18.0652C34.2124 18.0278 34.2508 17.9871 34.2908 17.9477C34.4024 18.1305 34.5166 18.3126 34.6358 18.4928C34.7474 19.0262 34.8641 19.5591 34.9958 20.0906C35.1908 20.8714 35.2858 21.7549 35.6699 22.4944C35.7108 22.5738 35.8783 22.5719 35.8758 22.4731C35.8566 21.6948 35.5116 20.8862 35.3016 20.1267C35.1941 19.7405 35.0808 19.3563 34.9624 18.9726C36.6691 21.4029 39.0724 23.6756 41.8483 25.5873C41.8491 25.5931 41.8483 25.5976 41.8499 25.6028C41.9691 25.925 42.0916 26.246 42.2133 26.567C41.8141 26.2932 41.4291 26.0051 41.0591 25.7042C40.9299 25.3909 40.8008 25.0771 40.6716 24.7632C40.6074 24.6069 40.2891 24.6734 40.3533 24.831C40.4091 24.9705 40.4649 25.1093 40.5208 25.2482C40.1308 24.9033 39.7583 24.543 39.4108 24.1664C39.3991 24.1535 39.3808 24.1522 39.3658 24.1561C39.3124 23.9688 39.2591 23.7809 39.2058 23.5936C39.1616 23.4373 38.8541 23.5032 38.8966 23.6595C39.0308 24.1419 39.1641 24.625 39.2983 25.1087C39.3549 25.3121 39.3999 25.5227 39.4583 25.73C38.1024 24.7696 36.8333 23.7357 35.6716 22.6184C35.3299 22.2102 34.9991 21.793 34.6816 21.3642C33.0149 19.1063 31.7058 16.5049 31.7474 13.9442ZM66.1683 30.6797C64.4224 31.8351 62.2549 32.601 60.0074 32.9433C54.9274 33.7164 49.7266 32.1431 45.4916 30.0732C41.7874 28.261 38.7191 26.0238 36.2649 23.3004C37.3008 24.2659 38.4016 25.1933 39.5708 26.0658C39.6124 26.1698 39.6608 26.2706 39.7199 26.3687C39.7649 26.443 39.9099 26.4023 39.9116 26.3287C39.9116 26.3255 39.9099 26.3222 39.9099 26.319C40.8441 26.9991 41.8233 27.643 42.8416 28.2442C42.9141 28.4083 42.9949 28.5691 43.1016 28.7176C43.1549 28.7938 43.3308 28.7628 43.3208 28.6718C43.3149 28.6162 43.2974 28.5607 43.2866 28.5045C44.2341 29.0457 45.2191 29.5449 46.2391 30.0015C46.3191 30.1611 46.4024 30.3186 46.4966 30.4723C46.5341 30.5337 46.6783 30.5059 46.6674 30.4362C46.6516 30.3458 46.6316 30.2547 46.6116 30.1643C47.1349 30.391 47.6683 30.6073 48.2108 30.8095C48.2658 30.8896 48.3266 30.9664 48.4033 31.0374C48.4524 31.0852 48.5566 31.0458 48.5541 30.9897C48.5541 30.9703 48.5474 30.9503 48.5449 30.9309C48.6916 30.9832 48.8358 31.0394 48.9841 31.0904C49.0783 31.1227 49.1608 31.0207 49.0666 30.9806C48.8808 30.8999 48.6974 30.8179 48.5124 30.7358C48.4466 30.5001 48.3149 30.2754 48.2058 30.048C48.1583 29.9499 48.1108 29.8517 48.0641 29.7535C48.4483 29.8762 48.8366 29.9918 49.2341 30.0919C49.3158 30.2889 49.3999 30.4853 49.4791 30.6829C49.6224 31.0426 49.7008 31.4598 49.9966 31.7647C50.0458 31.817 50.1616 31.8041 50.1616 31.7304C50.1624 31.3487 49.9049 30.9826 49.7408 30.6261C49.6691 30.4723 49.6016 30.3167 49.5324 30.1611C49.7008 30.2004 49.8691 30.2424 50.0399 30.2786C50.1933 30.3109 50.2508 30.1372 50.1049 30.0958C49.8716 30.0312 49.6408 29.9641 49.4099 29.8937C49.3374 29.7361 49.2641 29.5766 49.1833 29.4216C49.5558 29.5604 49.9283 29.6941 50.3033 29.8188C50.4233 29.8582 50.5449 29.8969 50.6666 29.935C50.6658 29.9363 50.6641 29.937 50.6633 29.9376C50.6199 29.9615 50.5949 29.9996 50.6174 30.0448C50.7908 30.3884 50.9866 30.7255 51.1749 31.0646C51.3524 31.3849 51.4691 31.7982 51.8074 32.0391C51.8616 32.0766 51.9533 32.0508 51.9541 31.9913C51.9549 31.6684 51.6916 31.3746 51.5233 31.0846C51.4116 30.8921 51.3016 30.6984 51.1908 30.5059C51.4783 30.7313 51.7658 30.9574 52.0541 31.1834C52.4108 31.4637 52.7716 31.8706 53.2541 32.014C53.3099 32.0301 53.3724 31.9804 53.3524 31.9377C53.1749 31.5612 52.6549 31.2758 52.2966 30.9955C51.9083 30.6893 51.5199 30.3845 51.1316 30.0784C52.2283 30.4071 53.3841 30.6835 54.5641 30.8792C54.7608 31.3965 55.0174 31.9371 55.3724 32.3808C55.4241 32.446 55.5549 32.404 55.5316 32.3285C55.3824 31.8544 55.0933 31.3636 54.7783 30.9154C55.1983 30.9806 55.6208 31.0355 56.0449 31.0781C56.1774 31.2247 56.3099 31.3707 56.4491 31.5121C56.5908 31.6574 56.7349 31.8008 56.8691 31.9487C57.0366 32.1321 57.1016 32.1431 57.3208 32.3091C57.3791 32.353 57.4808 32.2968 57.4358 32.2406C57.3024 32.0727 57.2541 31.9674 57.0833 31.8208C56.9066 31.6691 56.7391 31.5115 56.5691 31.3552C56.4741 31.2693 56.3758 31.186 56.2791 31.102C56.9608 31.1647 57.6449 31.1963 58.3249 31.1918C58.4399 31.4301 58.5549 31.6704 58.6716 31.908C58.8299 32.2348 58.9508 32.5907 59.1924 32.8852C59.2808 32.9937 59.4783 32.9207 59.4499 32.8012C59.4124 32.6404 59.4041 32.4725 59.3841 32.3097C59.3766 32.249 59.2899 32.2329 59.2466 32.2645C59.1608 32.0947 59.0641 31.9255 58.9833 31.7601C58.8891 31.5683 58.7933 31.3765 58.6983 31.1847C58.9516 31.1782 59.2033 31.1666 59.4549 31.1492C59.6308 31.2977 59.8049 31.4469 59.9808 31.5954C60.1299 31.722 60.2791 31.8486 60.4283 31.9739C60.6049 32.1218 60.8033 32.2161 61.0033 32.3466C61.0741 32.3924 61.2049 32.3311 61.1416 32.2626C60.8858 31.9849 60.6566 31.7427 60.3524 31.4882C60.2016 31.3629 60.0499 31.2364 59.8983 31.1104C60.2333 31.0781 60.5666 31.0394 60.8958 30.9864C61.0874 30.9554 61.2791 30.916 61.4716 30.8715C61.6824 31.2635 61.9124 31.66 62.2299 31.9746C62.2933 32.0372 62.3991 31.9662 62.3849 31.9042C62.2999 31.5289 62.0849 31.1434 61.8566 30.7707C63.1416 30.4052 64.3558 29.7322 64.9608 28.8448C66.5183 29.0909 67.7166 28.7977 68.6224 28.1945C67.9883 29.1 67.2924 29.935 66.1683 30.6797ZM65.3324 27.9594C65.3991 27.5758 65.3558 27.165 65.1683 26.733C64.8774 26.0594 64.2899 25.491 63.6491 24.9802C63.7158 24.9078 63.7833 24.8355 63.8499 24.7632C63.9724 24.9078 64.0908 25.0551 64.2199 25.1959C64.2883 25.2695 64.4241 25.2069 64.3758 25.1255C64.2658 24.9376 64.1483 24.7522 64.0258 24.5681C64.0641 24.5255 64.1033 24.4842 64.1408 24.4409C64.1941 24.3808 64.0749 24.3111 64.0116 24.3634C63.9849 24.3847 63.9599 24.4073 63.9333 24.4293C63.5966 23.9313 63.2266 23.4437 62.8516 22.9607C62.9566 22.8128 63.0649 22.6668 63.1649 22.5157C63.2141 22.4421 63.0858 22.3872 63.0233 22.4524C62.9174 22.5615 62.8191 22.6758 62.7158 22.7869C62.4908 22.4976 62.2649 22.2102 62.0449 21.9202C62.0199 21.8873 61.9949 21.8537 61.9691 21.8208C62.2133 21.4778 62.4483 21.1304 62.6666 20.7765C62.7099 20.7054 62.5891 20.6512 62.5308 20.7151C62.2733 20.9999 62.0291 21.2918 61.7924 21.5863C61.5624 21.2828 61.3316 20.9792 61.0999 20.677C61.3591 20.2527 61.6116 19.8271 61.8541 19.3957C61.8866 19.3369 61.7824 19.2846 61.7399 19.3433C61.4641 19.7166 61.2024 20.0932 60.9433 20.471C60.7599 20.232 60.5741 19.9944 60.3866 19.7573C60.5516 19.4409 60.7108 19.1231 60.8624 18.8034C60.8891 18.7485 60.7766 18.7124 60.7408 18.764C60.5649 19.0243 60.3933 19.2872 60.2258 19.5507C60.0449 19.3253 59.8599 19.1018 59.6741 18.8796C59.8241 18.6685 59.9774 18.4579 60.1199 18.2422C60.1683 18.1699 60.0399 18.113 59.9808 18.1789C59.4699 18.7485 59.0008 19.3324 58.5383 19.9246C58.4474 19.8239 58.3558 19.7237 58.2658 19.6236C58.1516 19.4958 58.0333 19.3698 57.9183 19.2426C58.3908 18.6601 58.8558 18.0756 59.2983 17.4788C61.1833 17.0087 63.0358 16.4048 64.8391 15.7758C64.9066 15.7525 64.8591 15.6647 64.7891 15.6841C62.9824 16.1613 61.1624 16.6845 59.4266 17.309C59.4283 17.3077 59.4283 17.3064 59.4299 17.3057C59.4774 17.2392 59.3558 17.1882 59.3008 17.247C59.2524 17.298 59.2074 17.3516 59.1591 17.4026C59.1216 17.4168 59.0824 17.4285 59.0449 17.4433C58.9974 17.4607 59.0099 17.5085 59.0466 17.5273C58.5916 18.02 58.1524 18.5206 57.7208 19.0256C57.5916 18.8842 57.4624 18.7434 57.3333 18.6019C57.6833 18.0317 58.0374 17.462 58.3599 16.8834C58.3916 16.8265 58.2908 16.7762 58.2491 16.833C57.8666 17.3497 57.5099 17.8773 57.1524 18.4043C56.9299 18.1608 56.7108 17.9167 56.4866 17.6752C56.7174 17.3561 56.9416 17.0351 57.1391 16.7025C57.1899 16.6166 57.0458 16.5501 56.9749 16.6276C56.7316 16.8995 56.5099 17.1811 56.2941 17.4659C56.0924 17.2476 55.8916 17.0293 55.6899 16.811C55.9608 16.47 56.2266 16.1258 56.4666 15.7719C56.5399 15.664 56.3474 15.5807 56.2583 15.6776C55.9858 15.9734 55.7333 16.2808 55.4866 16.5902C55.2691 16.3551 55.0508 16.12 54.8349 15.8836C54.8341 15.883 54.8333 15.883 54.8333 15.883C55.0191 15.6408 55.2024 15.3967 55.3733 15.1487C55.4191 15.0834 55.3033 15.035 55.2483 15.0925C54.7874 15.5691 54.3624 16.0709 53.9458 16.5747C53.6074 16.2718 53.2674 15.9695 52.9283 15.6686C53.3491 15.1183 53.7783 14.5694 54.1416 13.9965C54.1924 13.9151 54.0541 13.8551 53.9874 13.9261C53.5258 14.4221 53.1174 14.9491 52.7074 15.4722C52.5899 15.3682 52.4733 15.263 52.3558 15.159C52.8583 14.4454 53.3866 13.742 53.8674 13.0194C53.9041 12.9657 53.8033 12.9199 53.7616 12.9716C53.2158 13.6419 52.7149 14.3323 52.1916 15.0124C51.8749 14.7315 51.5616 14.4486 51.2458 14.1676C51.4274 13.8686 51.6383 13.5793 51.8574 13.2925C51.8641 13.2919 51.8691 13.2945 51.8774 13.2925C53.0208 12.9199 54.0899 12.3864 55.1666 11.9117C56.3199 11.4035 57.4658 10.8849 58.5866 10.3346C58.6858 10.2862 58.5991 10.1719 58.4949 10.2139C57.3541 10.6717 56.2349 11.1581 55.1224 11.656C54.0774 12.1229 52.9758 12.5615 51.9949 13.1104C52.2133 12.8256 52.4333 12.5414 52.6266 12.2502C52.6674 12.1882 52.5583 12.1397 52.5074 12.1959C51.9916 12.7733 51.5658 13.4088 51.0316 13.9765C50.8649 13.8273 50.6983 13.6781 50.5324 13.5289C51.0591 12.9083 51.6091 12.296 52.1249 11.6696C52.1724 11.6134 52.0608 11.5662 52.0116 11.6179C51.4516 12.1979 50.9183 12.7952 50.3674 13.3823C50.2416 13.2686 50.1141 13.1569 49.9891 13.0439C49.9049 12.9677 49.7641 13.0775 49.8474 13.153C49.9799 13.2732 50.1099 13.3952 50.2416 13.5154C50.0916 13.6742 49.9391 13.8312 49.7849 13.9875C48.8791 13.1337 47.9666 12.2837 47.0474 11.439C47.7724 10.5613 48.4699 9.66812 49.1208 8.75685C49.7149 8.46752 50.3049 8.17237 50.8833 7.86237C50.9791 7.81071 50.8958 7.69575 50.7908 7.73967C50.3174 7.94116 49.8516 8.15235 49.3891 8.36677C49.3941 8.31962 49.3133 8.28927 49.2708 8.33642C49.2274 8.38356 49.1866 8.432 49.1433 8.48044C48.6016 8.7336 48.0641 8.99387 47.5241 9.25285C47.3616 9.331 47.5108 9.53056 47.6749 9.45177C48.0291 9.28321 48.3824 9.114 48.7349 8.94414C48.0766 9.69848 47.4483 10.4702 46.8441 11.2524C46.5508 10.983 46.2583 10.7137 45.9658 10.4451C46.3941 9.96068 46.8191 9.47502 47.2299 8.98225C47.2624 9.02487 47.3291 9.05264 47.3883 9.01841C48.1591 8.57602 48.9166 8.12652 49.6358 7.63504C49.7091 7.58467 49.6124 7.48585 49.5299 7.52912C48.7874 7.92179 48.0833 8.34998 47.3866 8.7885C47.5508 8.58829 47.7158 8.38937 47.8749 8.18658C47.9191 8.13104 47.8091 8.06 47.7541 8.11489C47.0558 8.80852 46.3966 9.52281 45.7466 10.2442C45.5774 10.0873 45.4066 9.93162 45.2366 9.77533C45.5333 9.43498 45.8258 9.09398 46.1133 8.74975C47.1649 8.16591 48.1791 7.52783 49.1358 6.86198C49.2074 6.81225 49.1116 6.71344 49.0324 6.758C48.1624 7.23656 47.3099 7.74806 46.4933 8.28733C46.6241 8.12652 46.7574 7.967 46.8858 7.80425C46.9416 7.73385 46.8066 7.67896 46.7449 7.74096C46.3991 8.09294 46.0633 8.44944 45.7308 8.80852C45.5883 8.90927 45.4424 9.00744 45.3033 9.10948C45.2691 9.13466 45.3141 9.1831 45.3549 9.16114C45.3891 9.14371 45.4216 9.12369 45.4558 9.10689C45.3116 9.26383 45.1674 9.42141 45.0249 9.57964C44.9849 9.54348 44.9449 9.50602 44.9058 9.46985C44.8691 9.43627 44.8108 9.48406 44.8441 9.517C44.8866 9.55833 44.9274 9.60031 44.9699 9.641C44.9366 9.67716 44.9041 9.71462 44.8708 9.75079C44.6358 9.53121 44.4016 9.31098 44.1683 9.0901C44.7816 8.41973 45.3524 7.72158 45.8808 7.02925C45.9199 6.97887 45.8224 6.91623 45.7724 6.96467C44.9066 7.80037 44.0433 8.68775 43.3099 9.61258C42.9316 9.21669 42.5866 8.79754 42.2899 8.34546C42.4616 8.14331 42.6241 7.93729 42.7899 7.73902C43.1916 7.2611 43.5874 6.78189 43.9183 6.27362C43.9549 6.21744 43.8558 6.14639 43.7991 6.20194C43.3616 6.62625 42.9774 7.07898 42.6024 7.53687C42.4533 7.71964 42.2958 7.90177 42.1424 8.08712C41.6474 7.1145 41.4908 5.61035 40.5883 4.83406C44.8241 3.90535 49.0058 4.08231 53.0049 5.59937C56.6316 6.97564 59.6374 9.11335 62.4908 11.2885C65.5133 13.5929 68.2224 15.7926 69.2616 19.0786C70.0316 21.5146 70.9208 28.6957 65.3324 27.9594Z" fill="#E7DEC8"/>
</svg>
